<?xml version="1.0" encoding="utf-8"?>
<!-- Generator: Adobe Illustrator 17.1.0, SVG Export Plug-In . SVG Version: 6.00 Build 0)  -->
<!DOCTYPE svg PUBLIC "-//W3C//DTD SVG 1.1//EN" "http://www.w3.org/Graphics/SVG/1.1/DTD/svg11.dtd">
<svg version="1.1" xmlns="http://www.w3.org/2000/svg" xmlns:xlink="http://www.w3.org/1999/xlink" x="0px" y="0px" width="1000px"
	 height="1000px" viewBox="0 0 1000 1000" enable-background="new 0 0 1000 1000" xml:space="preserve">
<g id="Layer_1">
	<rect x="500" y="0" fill="#1CB0F6" width="40.589" height="40.333"/>
	<rect x="26.66" fill="#FFFFFF" width="26.701" height="80.042"/>
	<rect fill="#1CB0F6" width="26.66" height="80.042"/>
	<rect x="53.361" fill="#D33131" width="26.66" height="80.042"/>
	<rect x="300" y="0" fill="#7AC70C" width="80.042" height="80.042"/>
	<rect x="426.66" y="0" fill="#FFFFFF" width="26.701" height="80.042"/>
	<rect x="400" y="0" fill="#7AC70C" width="26.66" height="80.042"/>
	<rect x="453.361" y="0" fill="#D33131" width="26.66" height="80.042"/>
	<rect x="200" y="26.681" fill="#D33131" width="80.042" height="26.701"/>
	<rect x="200" y="53.381" fill="#FFC200" width="80.042" height="26.66"/>
	<rect x="200" y="0.02" fill="#231F20" width="80.042" height="26.66"/>
	<polygon fill="#D33131" points="227.221,100 254.515,100 254.513,146.558 240.868,141.521 227.221,146.369 	"/>
	<polygon fill="#231F20" points="227.221,100 200,100 200,156.039 227.221,146.369 	"/>
	<polygon fill="#FFC200" points="254.515,146.559 280,155.967 280,100 254.515,100 	"/>
	<polygon fill="#FFFFFF" points="427.221,100 454.515,100 454.513,146.559 440.868,141.522 427.221,146.369 	"/>
	<polygon fill="#7AC70C" points="427.221,100 400,100 400,156.04 427.221,146.37 	"/>
	<polygon fill="#D33131" points="454.515,146.559 480,155.967 480,100 454.515,100 	"/>
	<polygon fill="#7AC70C" points="300,100 380,100 380,155.967 340.868,141.522 300,156.04 	"/>
	<polygon fill="#FFFFFF" points="27.221,100.127 54.515,100.127 54.513,146.685 40.868,141.648 27.221,146.496 	"/>
	<polygon fill="#1CB0F6" points="27.221,100.127 0,100.127 0,156.166 27.221,146.496 	"/>
	<polygon fill="#D33131" points="54.515,146.686 80,156.093 80,100.127 54.515,100.127 	"/>
	<polygon fill="#FFC200" points="119.351,100 160.873,100 160.878,148.908 140.868,141.522 119.351,149.165 	"/>
	<polygon fill="#D33131" points="119.351,100 100,100 100,156.04 119.351,149.165 	"/>
	<polygon fill="#D33131" points="160.873,148.906 180,155.967 180,100 160.873,100 	"/>
	<path fill="#3871DB" d="M340.287,113.623c-8.072,0-14.615,6.543-14.615,14.615c0,7.212,5.229,13.189,12.1,14.384l3.095-1.1
		l2.622,0.968c6.529-1.461,11.412-7.282,11.412-14.252C354.902,120.166,348.359,113.623,340.287,113.623z"/>
	<path fill="#FFFFFF" d="M326.696,122.89c-0.445,1.129-0.754,2.325-0.905,3.571c2.354-0.417,4.928-0.663,7.709-0.663
		c10.184,0,17.77,3.153,20.716,6.863c0.413-1.301,0.64-2.682,0.67-4.112c-4.501-3.725-12.312-6.148-21.386-6.148
		C331.131,122.402,328.858,122.58,326.696,122.89z"/>
	<circle fill="#FFFFFF" cx="334.408" cy="128.02" r="0.871"/>
	<circle fill="#FFFFFF" cx="346.022" cy="131.504" r="0.871"/>
	<circle fill="#FFFFFF" cx="337.892" cy="133.827" r="0.871"/>
	<circle fill="#FFFFFF" cx="346.022" cy="121.051" r="0.726"/>
	<path fill="#FFCE00" d="M377.047,41.125L340.5,12.331c-0.178-0.14-0.429-0.14-0.605,0l-36.547,28.794
		c-0.118,0.093-0.187,0.235-0.187,0.385s0.069,0.292,0.187,0.385l36.547,28.794c0.089,0.07,0.196,0.105,0.303,0.105
		s0.214-0.035,0.303-0.105l36.547-28.794c0.118-0.093,0.187-0.235,0.187-0.385S377.166,41.218,377.047,41.125z"/>
	<g>
		<path fill="#FFFFFF" d="M511.677,7.386h0.006 M508.524,4.28c-0.353,0-0.666,0.227-0.775,0.563l-0.561,1.728h-1.817
			c-0.353,0-0.666,0.227-0.775,0.563c-0.109,0.336,0.01,0.704,0.296,0.912l1.47,1.068l-0.561,1.728
			c-0.109,0.336,0.01,0.704,0.296,0.912c0.143,0.104,0.311,0.156,0.479,0.156c0.168,0,0.336-0.052,0.479-0.156l1.47-1.068
			l1.47,1.068c0.143,0.104,0.311,0.156,0.479,0.156c0.168,0,0.336-0.052,0.479-0.156c0.286-0.208,0.405-0.576,0.296-0.912
			l-0.561-1.728l1.444-1.049c0.219-0.146,0.365-0.395,0.365-0.678c0-0.45-0.362-0.815-0.812-0.815h-0.006h-1.817l-0.561-1.728
			C509.19,4.507,508.877,4.28,508.524,4.28L508.524,4.28z"/>
	</g>
	<g>
		<path fill="#FFFFFF" d="M523.552,7.386h0.006 M520.398,4.28c-0.353,0-0.666,0.227-0.775,0.563l-0.561,1.728h-1.817
			c-0.353,0-0.666,0.227-0.775,0.563c-0.109,0.336,0.01,0.704,0.296,0.912l1.47,1.068l-0.561,1.728
			c-0.109,0.336,0.01,0.704,0.296,0.912c0.143,0.104,0.311,0.156,0.479,0.156c0.168,0,0.336-0.052,0.479-0.156l1.47-1.068
			l1.47,1.068c0.143,0.104,0.311,0.156,0.479,0.156c0.168,0,0.336-0.052,0.479-0.156c0.286-0.208,0.405-0.576,0.296-0.912
			l-0.561-1.728l1.444-1.049c0.219-0.146,0.365-0.395,0.365-0.678c0-0.45-0.362-0.815-0.812-0.815h-0.006h-1.817l-0.561-1.728
			C521.064,4.507,520.751,4.28,520.398,4.28L520.398,4.28z"/>
	</g>
	<g>
		<path fill="#FFFFFF" d="M535.426,7.386h0.006 M532.273,4.28c-0.353,0-0.666,0.227-0.775,0.563l-0.561,1.728h-1.817
			c-0.353,0-0.666,0.227-0.775,0.563c-0.109,0.336,0.01,0.704,0.296,0.912l1.47,1.068l-0.561,1.728
			c-0.109,0.336,0.01,0.704,0.296,0.912c0.143,0.104,0.311,0.156,0.479,0.156c0.168,0,0.336-0.052,0.479-0.156l1.47-1.068
			l1.47,1.068c0.143,0.104,0.311,0.156,0.479,0.156c0.168,0,0.336-0.052,0.479-0.156c0.286-0.208,0.405-0.576,0.296-0.912
			l-0.561-1.728l1.444-1.049c0.219-0.146,0.365-0.395,0.365-0.678c0-0.45-0.362-0.815-0.812-0.815h-0.006h-1.817l-0.561-1.728
			C532.939,4.507,532.626,4.28,532.273,4.28L532.273,4.28z"/>
	</g>
	<g>
		<path fill="#FFFFFF" d="M511.677,19.261h0.006 M508.524,16.154c-0.353,0-0.666,0.227-0.775,0.563l-0.561,1.728h-1.817
			c-0.353,0-0.666,0.227-0.775,0.563c-0.109,0.336,0.01,0.704,0.296,0.912l1.47,1.068l-0.561,1.728
			c-0.109,0.336,0.01,0.704,0.296,0.912c0.143,0.104,0.311,0.156,0.479,0.156c0.168,0,0.336-0.052,0.479-0.156l1.47-1.068
			l1.47,1.068c0.143,0.104,0.311,0.156,0.479,0.156c0.168,0,0.336-0.052,0.479-0.156c0.286-0.208,0.405-0.576,0.296-0.912
			l-0.561-1.728l1.444-1.049c0.219-0.146,0.365-0.395,0.365-0.678c0-0.45-0.362-0.815-0.812-0.815h-0.006h-1.817l-0.561-1.728
			C509.19,16.382,508.877,16.154,508.524,16.154L508.524,16.154z"/>
	</g>
	<g>
		<path fill="#FFFFFF" d="M523.552,19.261h0.006 M520.398,16.154c-0.353,0-0.666,0.227-0.775,0.563l-0.561,1.728h-1.817
			c-0.353,0-0.666,0.227-0.775,0.563c-0.109,0.336,0.01,0.704,0.296,0.912l1.47,1.068l-0.561,1.728
			c-0.109,0.336,0.01,0.704,0.296,0.912c0.143,0.104,0.311,0.156,0.479,0.156c0.168,0,0.336-0.052,0.479-0.156l1.47-1.068
			l1.47,1.068c0.143,0.104,0.311,0.156,0.479,0.156c0.168,0,0.336-0.052,0.479-0.156c0.286-0.208,0.405-0.576,0.296-0.912
			l-0.561-1.728l1.444-1.049c0.219-0.146,0.365-0.395,0.365-0.678c0-0.45-0.362-0.815-0.812-0.815h-0.006h-1.817l-0.561-1.728
			C521.064,16.382,520.751,16.154,520.398,16.154L520.398,16.154z"/>
	</g>
	<g>
		<path fill="#FFFFFF" d="M535.426,19.261h0.006 M532.273,16.154c-0.353,0-0.666,0.227-0.775,0.563l-0.561,1.728h-1.817
			c-0.353,0-0.666,0.227-0.775,0.563c-0.109,0.336,0.01,0.704,0.296,0.912l1.47,1.068l-0.561,1.728
			c-0.109,0.336,0.01,0.704,0.296,0.912c0.143,0.104,0.311,0.156,0.479,0.156c0.168,0,0.336-0.052,0.479-0.156l1.47-1.068
			l1.47,1.068c0.143,0.104,0.311,0.156,0.479,0.156c0.168,0,0.336-0.052,0.479-0.156c0.286-0.208,0.405-0.576,0.296-0.912
			l-0.561-1.728l1.444-1.049c0.219-0.146,0.365-0.395,0.365-0.678c0-0.45-0.362-0.815-0.812-0.815h-0.006h-1.817l-0.561-1.728
			C532.939,16.382,532.626,16.154,532.273,16.154L532.273,16.154z"/>
	</g>
	<g>
		<path fill="#FFFFFF" d="M511.677,31.135h0.006 M508.524,28.029c-0.353,0-0.666,0.227-0.775,0.563l-0.561,1.728h-1.817
			c-0.353,0-0.666,0.227-0.775,0.563c-0.109,0.336,0.01,0.704,0.296,0.912l1.47,1.068l-0.561,1.728
			c-0.109,0.336,0.01,0.704,0.296,0.912c0.143,0.104,0.311,0.156,0.479,0.156c0.168,0,0.336-0.052,0.479-0.156l1.47-1.068
			l1.47,1.068c0.143,0.104,0.311,0.156,0.479,0.156c0.168,0,0.336-0.052,0.479-0.156c0.286-0.208,0.405-0.576,0.296-0.912
			l-0.561-1.728l1.444-1.049c0.219-0.146,0.365-0.395,0.365-0.678c0-0.45-0.362-0.815-0.812-0.815h-0.006h-1.817l-0.561-1.728
			C509.19,28.256,508.877,28.029,508.524,28.029L508.524,28.029z"/>
	</g>
	<g>
		<path fill="#FFFFFF" d="M523.552,31.135h0.006 M520.398,28.029c-0.353,0-0.666,0.227-0.775,0.563l-0.561,1.728h-1.817
			c-0.353,0-0.666,0.227-0.775,0.563c-0.109,0.336,0.01,0.704,0.296,0.912l1.47,1.068l-0.561,1.728
			c-0.109,0.336,0.01,0.704,0.296,0.912c0.143,0.104,0.311,0.156,0.479,0.156c0.168,0,0.336-0.052,0.479-0.156l1.47-1.068
			l1.47,1.068c0.143,0.104,0.311,0.156,0.479,0.156c0.168,0,0.336-0.052,0.479-0.156c0.286-0.208,0.405-0.576,0.296-0.912
			l-0.561-1.728l1.444-1.049c0.219-0.146,0.365-0.395,0.365-0.678c0-0.45-0.362-0.815-0.812-0.815h-0.006h-1.817l-0.561-1.728
			C521.064,28.256,520.751,28.029,520.398,28.029L520.398,28.029z"/>
	</g>
	<g>
		<path fill="#FFFFFF" d="M535.426,31.135h0.006 M532.273,28.029c-0.353,0-0.666,0.227-0.775,0.563l-0.561,1.728h-1.817
			c-0.353,0-0.666,0.227-0.775,0.563c-0.109,0.336,0.01,0.704,0.296,0.912l1.47,1.068l-0.561,1.728
			c-0.109,0.336,0.01,0.704,0.296,0.912c0.143,0.104,0.311,0.156,0.479,0.156c0.168,0,0.336-0.052,0.479-0.156l1.47-1.068
			l1.47,1.068c0.143,0.104,0.311,0.156,0.479,0.156c0.168,0,0.336-0.052,0.479-0.156c0.286-0.208,0.405-0.576,0.296-0.912
			l-0.561-1.728l1.444-1.049c0.219-0.146,0.365-0.395,0.365-0.678c0-0.45-0.362-0.815-0.812-0.815h-0.006h-1.817l-0.561-1.728
			C532.939,28.256,532.626,28.029,532.273,28.029L532.273,28.029z"/>
	</g>
	<g>
		<g>
			<path fill="#7A221E" stroke="#7A221E" stroke-width="2" stroke-miterlimit="10" d="M139.923,131.75
				c-2.304,0-4.122-0.901-4.288-2.109c-0.016-0.028-0.025-0.061-0.025-0.094v-4.028h-0.689v4.484h0.213
				c0.118,0,0.214,0.096,0.214,0.214v1.177c0,0.118-0.096,0.214-0.214,0.214h-2.577c-0.118,0-0.214-0.096-0.214-0.214v-1.177
				c0-0.118,0.096-0.214,0.214-0.214h0.172v-4.484h-0.781c-0.118,0-0.214-0.096-0.214-0.214v-0.933c0-0.118,0.096-0.214,0.214-0.214
				h0.781v-2.222c0-0.083,0.047-0.155,0.116-0.191c-0.104-0.198-0.157-0.371-0.157-0.519c0-0.539,0.666-0.539,1.107-0.539
				c1.036,0,1.147,0.448,1.147,0.64c0,0.172-0.066,0.307-0.143,0.415c0.073,0.034,0.123,0.108,0.123,0.193v2.222h0.689v-2.343
				c0-0.118,0.096-0.214,0.214-0.214h8.199c0.118,0,0.214,0.096,0.214,0.214v2.343h0.669v-2.222c0-0.083,0.047-0.155,0.116-0.191
				c-0.104-0.198-0.157-0.372-0.157-0.519c0-0.539,0.666-0.539,1.107-0.539c1.036,0,1.147,0.448,1.147,0.64
				c0,0.172-0.066,0.307-0.143,0.415c0.073,0.034,0.123,0.108,0.123,0.193v2.222h0.598c0.118,0,0.214,0.096,0.214,0.214v0.933
				c0,0.118-0.096,0.214-0.214,0.214h-0.598v4.464h0.192c0.118,0,0.214,0.096,0.214,0.214v1.198c0,0.118-0.096,0.214-0.214,0.214
				h-2.577c-0.118,0-0.214-0.096-0.214-0.214v-1.198c0-0.118,0.096-0.214,0.214-0.214h0.192v-4.464h-0.669v4.028
				c0,0.037-0.01,0.072-0.026,0.102C144.037,130.853,142.221,131.75,139.923,131.75z"/>
		</g>
		<g>
			<path fill="#7A221E" stroke="#7A221E" stroke-width="2" stroke-miterlimit="10" d="M139.882,121.785
				c-2.039,0-2.742-0.107-2.84-0.462l-1.661-1.82c-0.036-0.039-0.056-0.091-0.056-0.144c0-1.326,1.765-2.182,4.496-2.182
				c2.377,0,4.577,0.272,4.577,2.243c0,0.687-0.622,1.015-1.121,1.279c-0.274,0.144-0.584,0.308-0.584,0.446
				C142.694,121.741,141.632,121.785,139.882,121.785z"/>
			<path fill="#7A221E" stroke="#7A221E" stroke-width="2" stroke-miterlimit="10" d="M139.822,117.39
				c2.598,0,4.364,0.365,4.364,2.03c0,0.995-1.705,1.116-1.705,1.725c0,0.426-1.461,0.426-2.598,0.426
				c-1.137,0-2.638-0.02-2.638-0.345l-1.705-1.867C135.539,118.181,137.224,117.39,139.822,117.39 M139.822,116.962
				c-2.861,0-4.71,0.941-4.71,2.396c0,0.107,0.04,0.21,0.112,0.288l1.627,1.782c0.189,0.509,1.171,0.57,3.032,0.57
				c1.69,0,3.025,0,3.025-0.854c0.036-0.029,0.297-0.166,0.469-0.257c0.521-0.275,1.236-0.652,1.236-1.468
				C144.613,116.962,141.377,116.962,139.822,116.962L139.822,116.962z"/>
		</g>
	</g>
	<rect x="100.148" y="18.564" fill="#FFC200" width="80.042" height="42.903"/>
	<rect x="100.148" fill="#D33131" width="80.042" height="18.564"/>
	<rect x="100.148" y="61.467" fill="#D33131" width="80.042" height="18.564"/>
	<g>
		<g>
			<path fill="#7A221E" d="M140.321,50.836c-2.716,0-4.981-0.776-6.19-1.997v0.783c0,0.552-0.448,1-1,1h-3.87c-0.552,0-1-0.448-1-1
				v-1.767c0-0.402,0.237-0.749,0.579-0.907v-5.466h-0.493c-0.552,0-1-0.448-1-1v-1.401c0-0.552,0.448-1,1-1h0.493v-2.657
				c0-0.133,0.026-0.259,0.073-0.375c-0.089-0.245-0.134-0.476-0.134-0.691c0-1.488,1.701-1.488,2.341-1.488
				c2.17,0,2.391,1.19,2.401,1.607c0.174-0.147,0.4-0.236,0.646-0.236h12.309c0.219,0,0.421,0.07,0.585,0.189
				c-0.001-0.024-0.001-0.049-0.001-0.073c0-1.488,1.701-1.488,2.341-1.488c2.228,0,2.401,1.255,2.401,1.64
				c0,0.21-0.037,0.396-0.095,0.559c0.042,0.11,0.065,0.23,0.065,0.355v2.657h0.219c0.552,0,1,0.448,1,1v1.401c0,0.552-0.448,1-1,1
				h-0.219v5.422c0.358,0.152,0.609,0.507,0.609,0.921v1.797c0,0.552-0.448,1-1,1h-3.87c-0.552,0-1-0.448-1-1V48.84
				C145.302,50.06,143.037,50.836,140.321,50.836z"/>
			<path fill="#7A221E" d="M149.4,33.871c0.609,0,1.402,0.122,1.402,0.64c0,0.446-0.43,0.668-0.556,0.914h0.526v3.656h1.219v1.402
				h-1.219v7.343h0.609v1.798h-3.869v-1.798h0.609v-7.343h-1.645v6.368h-0.024c-0.129,1.659-2.814,2.986-6.13,2.986
				c-3.316,0-6.001-1.327-6.13-2.986h-0.024v-6.368h-1.676v7.373h0.64v1.767h-3.869v-1.767h0.579v-7.373h-1.493v-1.402h1.493v-3.656
				h0.408c-0.167-0.238-0.468-0.713-0.468-1.066c0-0.488,0.731-0.488,1.341-0.488c0.609,0,1.402,0.122,1.402,0.64
				c0,0.446-0.43,0.668-0.556,0.914h0.526v3.656h1.676v-3.839h12.309v3.839h1.645v-3.656h0.408
				c-0.167-0.238-0.469-0.713-0.469-1.066C148.06,33.871,148.791,33.871,149.4,33.871 M149.4,31.871
				c-1.886,0-2.731,0.656-3.092,1.371h-12.137c-0.46-0.762-1.409-1.371-3.052-1.371c-2.907,0-3.341,1.559-3.341,2.488
				c0,0.233,0.031,0.469,0.092,0.711c-0.021,0.115-0.032,0.234-0.032,0.356v1.721c-0.859,0.224-1.493,1.006-1.493,1.935v1.402
				c0,0.929,0.634,1.711,1.493,1.935v4.031c-0.358,0.361-0.579,0.859-0.579,1.407v1.767c0,1.105,0.895,2,2,2h3.869
				c0.751,0,1.405-0.414,1.747-1.026c1.421,0.781,3.311,1.24,5.443,1.24c2.132,0,4.023-0.458,5.443-1.24
				c0.342,0.612,0.996,1.026,1.747,1.026h3.869c1.105,0,2-0.895,2-2v-1.798c0-0.564-0.234-1.074-0.609-1.437v-4.064
				c0.716-0.304,1.219-1.014,1.219-1.842v-1.402c0-0.827-0.502-1.537-1.219-1.842v-1.815c0-0.119-0.01-0.235-0.03-0.348
				c0.038-0.175,0.061-0.363,0.061-0.566C152.802,33.293,151.911,31.871,149.4,31.871L149.4,31.871z"/>
		</g>
		<g>
			<path fill="#7A221E" d="M140.26,35.877c-2.775,0-4.495-0.054-4.879-1.041l-2.38-2.606c-0.168-0.184-0.262-0.425-0.262-0.674
				c0-2.44,2.847-3.956,7.429-3.956c2.451,0,7.551,0,7.551,4.047c0,1.441-1.281,2.117-2.046,2.521
				c-0.166,0.088-0.399,0.211-0.529,0.3C144.935,35.877,142.76,35.877,140.26,35.877z"/>
			<path fill="#7A221E" d="M140.169,28.6c3.9,0,6.551,0.548,6.551,3.047c0,1.493-2.559,1.676-2.559,2.59c0,0.64-2.194,0.64-3.9,0.64
				c-1.706,0-3.961-0.03-3.961-0.518l-2.559-2.803C133.74,29.788,136.269,28.6,140.169,28.6 M140.169,26.6
				c-6.215,0-8.429,2.56-8.429,4.956c0,0.499,0.187,0.98,0.523,1.349l2.23,2.442c0.696,1.53,3.171,1.53,5.767,1.53
				c2.416,0,5.113,0,5.756-1.759c0.044-0.023,0.086-0.046,0.124-0.065c0.837-0.442,2.579-1.361,2.579-3.405
				C148.719,26.6,142.507,26.6,140.169,26.6L140.169,26.6z"/>
		</g>
	</g>
	<polygon fill="#FFFFFF" points="119.351,500 160.873,500 160.878,548.908 140.868,541.522 119.351,549.165 	"/>
	<polygon fill="#1CB0F6" points="119.351,500 100,500 100,556.04 119.351,549.165 	"/>
	<polygon fill="#1CB0F6" points="160.873,548.906 180,555.967 180,500 160.873,500 	"/>
	<rect x="100.148" y="418.564" fill="#FFFFFF" width="80.042" height="42.903"/>
	<rect x="100.148" y="400" fill="#1CB0F6" width="80.042" height="18.564"/>
	<rect x="100.148" y="461.467" fill="#1CB0F6" width="80.042" height="18.564"/>
	<rect x="699.958" y="26.852" fill="#FFFFFF" width="80" height="26.36"/>
	<rect x="699.958" fill="#D33131" width="80.042" height="26.852"/>
	<rect x="699.958" y="53.212" fill="#7AC70C" width="80.042" height="26.852"/>
	<rect x="626.619" y="0" fill="#FFFFFF" width="26.701" height="80.042"/>
	<rect x="599.958" y="0" fill="#7AC70C" width="26.66" height="80.042"/>
	<rect x="653.32" y="0" fill="#FF9100" width="26.66" height="80.042"/>
	<rect x="26.66" y="200.062" fill="#FFC200" width="26.701" height="80.042"/>
	<rect x="899.958" y="40.042" fill="#D33131" width="80.042" height="40"/>
	<rect x="899.958" y="0" fill="#FFFFFF" width="80.042" height="40.042"/>
	<rect x="100" y="253.563" fill="#1CB0F6" width="80.042" height="26.542"/>
	<rect x="100" y="200.062" fill="#D33131" width="80.042" height="26.61"/>
	<rect x="100" y="226.673" fill="#FFFFFF" width="80.042" height="26.89"/>
	<rect y="200.062" fill="#1CB0F6" width="26.66" height="80.042"/>
	<rect x="53.361" y="200.062" fill="#D33131" width="26.66" height="80.042"/>
	<rect x="799.958" y="26.681" fill="#1CB0F6" width="80.042" height="26.701"/>
	<rect x="799.958" y="53.381" fill="#D33131" width="80.042" height="26.66"/>
	<rect x="799.958" y="0.02" fill="#FFFFFF" width="80.042" height="26.66"/>
	<polygon fill="#1CB0F6" points="827.18,100 854.473,100 854.472,146.558 840.826,141.521 827.18,146.369 	"/>
	<polygon fill="#D33131" points="827.18,100 799.958,100 799.958,156.039 827.18,146.369 	"/>
	<polygon fill="#FFFFFF" points="854.473,146.559 879.958,155.967 879.958,100 854.473,100 	"/>
	<polygon fill="#FFC200" points="27.221,300.063 54.515,300.063 54.513,346.621 40.868,341.584 27.221,346.432 	"/>
	<rect x="200" y="200.062" fill="#D33131" width="80.042" height="80.042"/>
	<polygon fill="#D33131" points="200.145,300.063 280,300.063 280,355.928 240.939,341.509 200.145,356.001 	"/>
	<polygon fill="#1CB0F6" points="27.221,300.063 0,300.063 0,356.102 27.221,346.432 	"/>
	<polygon fill="#D33131" points="54.515,346.622 80,356.029 80,300.063 54.515,300.063 	"/>
	<polygon fill="#FFFFFF" points="127.221,300.063 154.515,300.063 154.513,346.621 140.868,341.584 127.221,346.432 	"/>
	<polygon fill="#D33131" points="127.221,300.063 100,300.063 100,356.102 127.221,346.432 	"/>
	<polygon fill="#1CB0F6" points="154.515,346.622 180,356.029 180,300.063 154.515,300.063 	"/>
	<g>
		<rect x="700" y="400.062" fill="#D33131" width="80.042" height="13.625"/>
		<line fill="#D33131" x1="780.042" y1="413.688" x2="700" y2="413.688"/>
	</g>
	<g>
		<rect x="700" y="413.706" fill="#FFFFFF" width="80.042" height="13.792"/>
		<line fill="#FFFFFF" x1="780.042" y1="427.498" x2="700" y2="427.498"/>
	</g>
	<g>
		<rect x="700" y="452.529" fill="#FFFFFF" width="80.042" height="13.792"/>
		<line fill="#FFFFFF" x1="780.042" y1="466.322" x2="700" y2="466.322"/>
	</g>
	<g>
		<rect x="700" y="427.432" fill="#1CB0F6" width="80.042" height="25.204"/>
		<line fill="#1CB0F6" x1="780.042" y1="452.637" x2="700" y2="452.637"/>
	</g>
	<g>
		<rect x="700" y="466.297" fill="#D33131" width="80.042" height="13.708"/>
		<line fill="#D33131" x1="780.042" y1="480.006" x2="700" y2="480.006"/>
	</g>
	<rect y="453.563" fill="#7AC70C" width="80.042" height="26.542"/>
	<rect x="300" y="600.062" fill="#7AC70C" width="80.042" height="79.943"/>
	<rect y="400.062" fill="#FF9100" width="80.042" height="26.61"/>
	<rect x="200" y="600.062" fill="#FF9100" width="80.042" height="79.943"/>
	<rect y="426.673" fill="#FFFFFF" width="80.042" height="26.89"/>
	<polygon fill="#FFFFFF" points="27.221,500.063 54.515,500.063 54.513,546.621 40.868,541.584 27.221,546.432 	"/>
	<polygon fill="#7AC70C" points="27.221,500.063 0,500.063 0,556.102 27.221,546.432 	"/>
	<polygon fill="#FF9100" points="54.515,546.622 80,556.029 80,500.063 54.515,500.063 	"/>
	<polygon fill="#D33131" points="899.958,100 940.75,100 940.826,141.522 899.958,156.04 	"/>
	<polygon fill="#FFFFFF" points="627.18,100.127 654.473,100.127 654.472,146.685 640.826,141.648 627.18,146.496 	"/>
	<polygon fill="#7AC70C" points="627.18,100.127 599.958,100.127 599.958,156.166 627.18,146.496 	"/>
	<polygon fill="#FF9100" points="654.473,146.686 679.958,156.093 679.958,100.127 654.473,100.127 	"/>
	<polygon fill="#FFFFFF" points="727.375,100 754.458,100 754.458,146.554 740.826,141.522 727.375,146.3 	"/>
	<g>
		<path fill="#FFFFFF" d="M244.613,257.137c-10.109,0-18.304-8.195-18.304-18.304s8.195-18.304,18.304-18.304
			c4.147,0,7.959,1.395,11.029,3.72c-4.168-4.973-10.423-8.138-17.42-8.138c-12.549,0-22.721,10.173-22.721,22.721
			s10.173,22.721,22.721,22.721c6.996,0,13.252-3.164,17.42-8.138C252.572,255.742,248.76,257.137,244.613,257.137z"/>
		<polygon fill="#FFFFFF" points="260.435,229.737 264.54,235.704 271.484,233.643 267.078,239.392 271.183,245.359 
			264.354,242.945 259.948,248.693 260.134,241.452 253.305,239.038 260.249,236.977 		"/>
	</g>
	<g>
		<path fill="#FFFFFF" d="M253.894,341.32c-1.736,1.315-3.753,2.272-5.943,2.777l2.057,0.759
			C251.457,343.857,252.765,342.666,253.894,341.32z"/>
		<path fill="#FFFFFF" d="M238.979,309.38c-10.744,0-19.454,8.71-19.454,19.454c0,7.195,3.916,13.463,9.724,16.828l8.092-2.875
			c-5.078-2.593-8.562-7.861-8.562-13.953c0-8.655,7.016-15.672,15.671-15.672c3.551,0,6.815,1.195,9.442,3.185
			C250.325,312.089,244.97,309.38,238.979,309.38z"/>
	</g>
	<polygon fill="#FFFFFF" points="257.998,321.045 261.513,326.154 267.458,324.39 263.685,329.312 267.201,334.421 261.354,332.353 
		257.581,337.275 257.74,331.076 251.893,329.008 257.839,327.244 	"/>
	<rect x="300" y="400.062" fill="#D33131" width="80.042" height="80.042"/>
	<rect x="400" y="200.062" fill="#FFFFFF" width="80.042" height="80.042"/>
	<polygon fill="#D33131" points="727.375,100 699.958,100 699.958,156.04 727.375,146.3 	"/>
	<polygon fill="#7AC70C" points="779.875,155.936 779.875,100 754.458,100 754.458,146.554 	"/>
	<rect x="899.958" y="226.852" fill="#FFFFFF" width="80" height="26.36"/>
	<rect x="899.958" y="200" fill="#D33131" width="80.042" height="26.852"/>
	<rect x="899.958" y="253.212" fill="#262626" width="80.042" height="26.852"/>
	<polygon fill="#FFFFFF" points="927.375,300 954.458,300 954.458,346.554 940.826,341.522 927.375,346.3 	"/>
	<polygon fill="#D33131" points="927.375,300 899.958,300 899.958,356.04 927.375,346.3 	"/>
	<polygon fill="#262626" points="979.875,355.936 979.875,300 954.458,300 954.458,346.554 	"/>
	<polygon fill="#FFFFFF" points="940.75,141.549 940.826,141.522 979.958,155.967 979.958,100 940.75,100 	"/>
	<polygon fill="#1CB0F6" points="799.958,400 799.958,440.042 799.958,480.042 880,480.042 880,440.042 880,400 	"/>
	<polygon fill="#D33131" points="499.958,400 499.958,440.042 499.958,480.042 580,480.042 580,440.042 580,400 	"/>
	<polygon fill="#D33131" points="540.75,500 540.75,500 499.958,500 499.958,556.04 540.75,541.549 540.75,541.549 540.826,541.522 
		579.958,555.967 579.958,500 	"/>
	<rect x="499.958" y="240.042" fill="#FFC200" width="80.042" height="40"/>
	<rect x="499.958" y="200" fill="#1CB0F6" width="80.042" height="40.042"/>
	<polygon fill="#1CB0F6" points="499.958,300 540.75,300 540.826,341.522 499.958,356.04 	"/>
	<polygon fill="#FFC200" points="540.75,341.549 540.826,341.522 579.958,355.967 579.958,300 540.75,300 	"/>
	<polygon fill="#1CB0F6" points="399.958,600 399.958,640.042 399.958,680.042 480,680.042 480,640.042 480,600 	"/>
	<rect x="299.958" y="240.042" fill="#FFFFFF" width="80.042" height="40"/>
	<rect x="299.958" y="200" fill="#D33131" width="80.042" height="40.042"/>
	<polygon fill="#FFFFFF" points="299.958,300 340.75,300 340.826,341.522 299.958,356.04 	"/>
	<polygon fill="#D33131" points="340.75,341.549 340.826,341.522 379.958,355.967 379.958,300 340.75,300 	"/>
	<path fill="#FFC200" d="M357.835,434.831h-0.006h-12.46l-3.85-11.85c-0.141-0.441-0.553-0.742-1.019-0.742
		s-0.878,0.299-1.022,0.742l-3.85,11.85h-12.46c-0.466,0-0.878,0.299-1.022,0.742c-0.144,0.443,0.013,0.928,0.39,1.2l10.081,7.323
		l-3.85,11.85c-0.144,0.443,0.013,0.927,0.39,1.2c0.188,0.136,0.41,0.205,0.631,0.205c0.221,0,0.443-0.069,0.631-0.205l10.081-7.323
		l10.081,7.323c0.188,0.136,0.41,0.205,0.631,0.205c0.221,0,0.443-0.069,0.631-0.205c0.376-0.274,0.534-0.759,0.39-1.2l-3.85-11.85
		l10.05-7.302c0.287-0.193,0.475-0.52,0.475-0.89C358.906,435.311,358.429,434.831,357.835,434.831z"/>
	<path fill="#FFC200" d="M357.835,526.831h-0.006h-12.46l-3.85-11.85c-0.141-0.441-0.554-0.742-1.019-0.742
		c-0.466,0-0.878,0.299-1.022,0.742l-3.85,11.85h-12.46c-0.466,0-0.878,0.299-1.022,0.742c-0.143,0.443,0.013,0.928,0.39,1.2
		l10.081,7.323l-3.074,9.461l11.396-4.048l10.454,3.859l-3.012-9.272l10.05-7.302c0.287-0.193,0.475-0.52,0.475-0.89
		C358.906,527.311,358.429,526.831,357.835,526.831z"/>
	<path fill="#D33131" d="M300.145,500.063v55.938l29.398-10.443l3.074-9.461l-10.081-7.323c-0.376-0.273-0.533-0.757-0.39-1.2
		c0.143-0.443,0.556-0.742,1.022-0.742h12.46l3.85-11.85c0.143-0.443,0.556-0.742,1.022-0.742c0.466,0,0.878,0.3,1.019,0.742
		l3.85,11.85h12.46h0.006c0.593,0,1.071,0.48,1.071,1.073c0,0.37-0.188,0.697-0.475,0.89l-10.05,7.302l3.012,9.272L380,555.928
		v-55.865H300.145z"/>
	<rect y="600.062" fill="#D33131" width="80.042" height="80.042"/>
	<path fill="#D33131" d="M57.835,726.831"/>
	<g>
		<path fill="#FFC200" d="M511.017,429.122c-0.049,0-0.097-0.015-0.139-0.045c-0.082-0.06-0.117-0.166-0.086-0.263l1.74-5.358
			l-4.557-3.312c-0.082-0.061-0.117-0.166-0.086-0.263s0.122-0.163,0.224-0.163h5.633l1.74-5.358
			c0.031-0.097,0.122-0.163,0.224-0.163c0.102,0,0.193,0.066,0.224,0.163l1.741,5.358h5.633c0.102,0,0.193,0.066,0.224,0.163
			c0.031,0.097-0.003,0.203-0.085,0.263l-4.558,3.312l1.741,5.358c0.031,0.097-0.003,0.203-0.086,0.263
			c-0.042,0.03-0.09,0.045-0.139,0.045s-0.097-0.015-0.139-0.045l-4.558-3.312l-4.557,3.312
			C511.114,429.107,511.066,429.122,511.017,429.122z"/>
		<path fill="#FFC200" d="M515.712,414.435l1.794,5.52h5.804l-4.695,3.412l1.793,5.52l-4.695-3.412l-4.695,3.412l1.793-5.52
			l-4.695-3.412h5.804L515.712,414.435 M523.31,419.955h0.005 M515.712,413.965c-0.204,0-0.385,0.131-0.447,0.325l-1.688,5.195
			h-5.462c-0.204,0-0.385,0.131-0.447,0.325c-0.063,0.194,0.006,0.407,0.171,0.527l4.419,3.211l-1.688,5.195
			c-0.063,0.194,0.006,0.407,0.171,0.527c0.082,0.059,0.179,0.09,0.276,0.09s0.194-0.03,0.276-0.09l4.419-3.211l4.419,3.211
			c0.082,0.059,0.179,0.09,0.276,0.09s0.194-0.03,0.276-0.09c0.165-0.12,0.234-0.333,0.171-0.527l-1.688-5.195l4.401-3.198
			c0.128-0.084,0.214-0.229,0.214-0.393c0-0.26-0.209-0.47-0.468-0.47h-0.005h-5.462l-1.688-5.195
			C516.097,414.096,515.916,413.965,515.712,413.965L515.712,413.965z"/>
	</g>
	<g>
		<path fill="#FFC200" d="M528.648,415.078c-0.048,0-0.092-0.03-0.108-0.076l-0.917-2.579c0,0-2.739,0.076-2.74,0.076
			c-0.048,0-0.092-0.03-0.108-0.076c-0.017-0.046-0.001-0.099,0.038-0.129l2.17-1.669l-0.918-2.58
			c-0.017-0.046-0.001-0.099,0.039-0.129c0.021-0.016,0.045-0.024,0.069-0.024c0.022,0,0.045,0.006,0.065,0.021l2.259,1.546
			l2.168-1.669c0.022-0.016,0.046-0.024,0.07-0.024c0.022,0,0.045,0.006,0.065,0.021c0.042,0.028,0.059,0.079,0.046,0.126
			l-0.773,2.627l2.258,1.547c0.042,0.028,0.059,0.079,0.046,0.126c-0.015,0.048-0.057,0.081-0.107,0.082l-2.736,0.075l-0.774,2.626
			C528.742,415.044,528.699,415.077,528.648,415.078C528.65,415.078,528.649,415.078,528.648,415.078z"/>
		<path fill="#FFC200" d="M530.736,407.88l-0.797,2.706l2.326,1.594l-2.82,0.078l-0.797,2.706l-0.946-2.657l-2.82,0.078l2.235-1.72
			l-0.946-2.657l2.326,1.594L530.736,407.88 M530.736,407.652c-0.049,0-0.098,0.016-0.14,0.048l-2.103,1.619l-2.19-1.5
			c-0.039-0.027-0.084-0.04-0.129-0.04c-0.049,0-0.098,0.016-0.14,0.048c-0.078,0.06-0.109,0.165-0.076,0.258l0.89,2.5l-2.103,1.619
			c-0.078,0.06-0.109,0.165-0.076,0.258c0.032,0.092,0.119,0.152,0.216,0.152c0.002,0,0.004,0,0.006,0l2.653-0.073l0.889,2.5
			c0.032,0.092,0.119,0.152,0.216,0.152c0.002,0,0.004,0,0.006,0c0.099-0.003,0.186-0.069,0.213-0.164l0.75-2.546l2.653-0.073
			c0.099-0.003,0.185-0.069,0.213-0.164c0.028-0.095-0.008-0.197-0.09-0.253l-2.19-1.5l0.75-2.546
			c0.028-0.095-0.008-0.197-0.09-0.253C530.825,407.666,530.781,407.652,530.736,407.652L530.736,407.652z"/>
	</g>
	<g>
		<path fill="#FFC200" d="M535.134,422.279c-0.048-0.014-0.082-0.055-0.084-0.105l-0.133-2.733l-2.641-0.717
			c-0.048-0.014-0.082-0.055-0.084-0.105c-0.003-0.049,0.027-0.095,0.073-0.113l2.559-0.972l-0.133-2.734
			c-0.003-0.049,0.027-0.095,0.073-0.113c0.014-0.005,0.027-0.007,0.041-0.007c0.033,0,0.067,0.016,0.09,0.043l1.715,2.133
			l2.559-0.972c0.014-0.005,0.027-0.007,0.041-0.007c0.033,0,0.067,0.016,0.09,0.043c0.03,0.039,0.033,0.093,0.006,0.135
			l-1.499,2.29l1.716,2.133c0.03,0.039,0.033,0.093,0.006,0.135c-0.022,0.032-0.058,0.052-0.096,0.052
			c-0.01,0-0.021-0.001-0.029-0.004l-2.642-0.717l-1.499,2.29c-0.022,0.032-0.058,0.052-0.096,0.052
			C535.154,422.284,535.143,422.283,535.134,422.279z"/>
		<path fill="#FFC200" d="M534.803,414.795l1.767,2.198l2.637-1.001l-1.544,2.36l1.767,2.198l-2.721-0.739l-1.544,2.36l-0.138-2.817
			l-2.721-0.739l2.637-1.001L534.803,414.795 M539.207,415.991h0.005 M534.803,414.565c-0.027,0-0.054,0.005-0.081,0.015
			c-0.093,0.035-0.152,0.126-0.147,0.225l0.129,2.651l-2.482,0.943c-0.093,0.035-0.152,0.126-0.147,0.225
			c0.005,0.099,0.073,0.184,0.169,0.21l2.561,0.695l0.129,2.651c0.005,0.099,0.073,0.184,0.169,0.21
			c0.02,0.005,0.04,0.008,0.059,0.008c0.076,0,0.148-0.038,0.192-0.103l1.454-2.221l2.561,0.695c0.02,0.005,0.04,0.008,0.059,0.008
			c0.076,0,0.148-0.038,0.192-0.103c0.054-0.083,0.049-0.192-0.014-0.269l-1.663-2.069l1.44-2.201
			c0.033-0.04,0.053-0.09,0.053-0.145c0-0.126-0.1-0.228-0.226-0.228h-0.003c-0.001,0-0.001,0-0.002,0c-0.006,0-0.014,0-0.02,0.001
			c-0.023,0.002-0.045,0.007-0.066,0.016l-2.477,0.941l-1.663-2.069C534.937,414.596,534.871,414.565,534.803,414.565
			L534.803,414.565z"/>
	</g>
	<g>
		<path fill="#FFC200" d="M538.331,432.13c-0.023,0-0.047-0.007-0.067-0.022l-2.214-1.609l-2.215,1.609
			c-0.021,0.015-0.044,0.022-0.067,0.022c-0.023,0-0.047-0.007-0.067-0.022c-0.04-0.029-0.057-0.081-0.042-0.128l0.847-2.604
			l-2.215-1.609c-0.04-0.029-0.057-0.081-0.042-0.128c0.016-0.047,0.059-0.079,0.108-0.079h2.737l0.847-2.604
			c0.016-0.047,0.059-0.079,0.108-0.079l0,0c0.05,0,0.094,0.032,0.108,0.079l0.846,2.604h2.737c0.05,0,0.094,0.032,0.108,0.079
			c0.016,0.047-0.002,0.099-0.042,0.128l-2.215,1.609l0.847,2.604c0.016,0.047-0.002,0.099-0.042,0.128
			C538.378,432.122,538.355,432.13,538.331,432.13z"/>
		<path fill="#FFC200" d="M536.051,424.993l0.872,2.682h2.821l-2.281,1.658l0.872,2.682l-2.281-1.658l-2.281,1.658l0.872-2.682
			l-2.281-1.658h2.821L536.051,424.993 M539.742,427.676h0.005 M536.051,424.764c-0.099,0-0.187,0.064-0.218,0.159l-0.821,2.524
			h-2.654c-0.099,0-0.187,0.064-0.218,0.159c-0.031,0.095,0.003,0.197,0.083,0.255l2.147,1.56l-0.821,2.524
			c-0.03,0.094,0.003,0.197,0.083,0.255c0.04,0.029,0.088,0.044,0.135,0.044c0.047,0,0.095-0.015,0.135-0.044l2.147-1.56l2.147,1.56
			c0.04,0.029,0.088,0.044,0.135,0.044c0.047,0,0.095-0.015,0.135-0.044c0.08-0.058,0.114-0.162,0.083-0.255l-0.821-2.524
			l2.135-1.552c0.065-0.041,0.108-0.112,0.108-0.193c0-0.126-0.1-0.228-0.226-0.228h-0.005h-2.654l-0.821-2.524
			C536.237,424.828,536.15,424.764,536.051,424.764L536.051,424.764z"/>
	</g>
	<polygon fill="#FFC200" points="480.042,433.917 433.001,433.917 433.001,400 418.334,400 418.334,433.917 400.042,433.917 
		400.042,448.584 418.334,448.584 418.334,480.104 433.001,480.104 433.001,448.584 480.042,448.584 	"/>
	<polygon fill="#1CB0F6" points="433.001,400.062 433.001,433.917 480.042,433.917 480.042,448.584 433.001,448.584 
		433.001,480.104 418.334,480.104 418.334,448.584 400.042,448.584 400.042,433.917 418.334,433.917 418.334,400.062 400,400.062 
		400,480.104 480.042,480.104 480.042,400.062 	"/>
	<polygon fill="#FFC200" points="479.958,518.917 433.001,518.917 433.001,500 418.334,500 418.334,518.917 400.042,518.917 
		400.042,533.584 418.334,533.584 418.334,549.512 433.001,544.302 433.001,533.584 479.958,533.584 	"/>
	<g>
		<polygon fill="#1CB0F6" points="433.001,544.302 440.75,541.549 440.826,541.522 479.958,555.967 479.958,533.584 
			433.001,533.584 		"/>
		<polygon fill="#1CB0F6" points="418.334,549.512 418.334,533.584 400.042,533.584 400.042,518.917 418.334,518.917 418.334,500 
			399.958,500 399.958,556.04 430.86,545.062 		"/>
		<polygon fill="#1CB0F6" points="440.75,500 440.75,500 433.001,500 433.001,518.917 479.958,518.917 479.958,500 		"/>
	</g>
	<polygon fill="#FFFFFF" points="180.042,633.917 133.001,633.917 133.001,600 118.334,600 118.334,633.917 100.042,633.917 
		100.042,648.584 118.334,648.584 118.334,680.104 133.001,680.104 133.001,648.584 180.042,648.584 	"/>
	<g>
		<path fill="#FFC200" d="M527.206,440.07c-0.042,0-0.08-0.023-0.101-0.06l-1.302-2.408c0,0-2.706,0.497-2.713,0.497
			c-0.042,0-0.08-0.023-0.101-0.061c-0.023-0.044-0.017-0.097,0.019-0.133l1.887-1.982l-1.302-2.408
			c-0.023-0.044-0.017-0.097,0.019-0.133c0.022-0.023,0.052-0.035,0.082-0.035c0.017,0,0.033,0.004,0.05,0.011l2.468,1.182
			l1.888-1.982c0.022-0.023,0.052-0.035,0.082-0.035c0.017,0,0.033,0.004,0.05,0.011c0.044,0.022,0.07,0.069,0.064,0.119
			l-0.362,2.713l2.469,1.182c0.044,0.022,0.07,0.069,0.064,0.119c-0.006,0.049-0.044,0.088-0.093,0.097l-2.691,0.494l-0.363,2.714
			c-0.006,0.049-0.044,0.088-0.093,0.097C527.22,440.069,527.213,440.07,527.206,440.07z"/>
		<path fill="#FFC200" d="M528.182,432.636l-0.372,2.796l2.543,1.218l-2.774,0.51l-0.372,2.796l-1.342-2.481l-2.774,0.51
			l1.945-2.043l-1.342-2.481l2.543,1.218L528.182,432.636 M528.182,432.408c-0.062,0-0.122,0.025-0.166,0.071l-1.83,1.923
			l-2.394-1.146c-0.031-0.015-0.066-0.023-0.099-0.023c-0.062,0-0.122,0.025-0.166,0.071c-0.069,0.072-0.082,0.179-0.035,0.267
			l1.263,2.335l-1.83,1.923c-0.069,0.072-0.082,0.179-0.035,0.267c0.041,0.075,0.118,0.12,0.201,0.12
			c0.014,0,0.027-0.001,0.042-0.004l2.611-0.48l1.263,2.335c0.041,0.075,0.118,0.12,0.201,0.12c0.014,0,0.027-0.001,0.042-0.004
			c0.098-0.018,0.172-0.097,0.186-0.195l0.35-2.631l2.61-0.48c0.098-0.018,0.172-0.097,0.186-0.195
			c0.014-0.098-0.039-0.194-0.128-0.237l-2.394-1.146l0.35-2.631c0.014-0.098-0.039-0.194-0.128-0.237
			C528.25,432.415,528.215,432.408,528.182,432.408L528.182,432.408z"/>
	</g>
	<g>
		<path fill="#FFC200" d="M511.017,527.122c-0.049,0-0.097-0.015-0.139-0.045c-0.082-0.06-0.117-0.166-0.086-0.263l1.74-5.358
			l-4.557-3.312c-0.082-0.06-0.117-0.166-0.086-0.263c0.031-0.097,0.122-0.163,0.224-0.163h5.633l1.74-5.358
			c0.031-0.097,0.122-0.163,0.224-0.163c0.102,0,0.193,0.066,0.224,0.163l1.741,5.358h5.633c0.102,0,0.193,0.066,0.224,0.163
			s-0.003,0.203-0.085,0.263l-4.558,3.312l1.741,5.358c0.031,0.097-0.003,0.203-0.086,0.263c-0.042,0.03-0.09,0.045-0.139,0.045
			s-0.097-0.015-0.139-0.045l-4.558-3.312l-4.557,3.312C511.114,527.107,511.066,527.122,511.017,527.122z"/>
		<path fill="#FFC200" d="M515.712,512.435l1.794,5.52h5.804l-4.695,3.412l1.793,5.52l-4.695-3.412l-4.695,3.412l1.793-5.52
			l-4.695-3.412h5.804L515.712,512.435 M523.31,517.955h0.005 M515.712,511.965c-0.204,0-0.385,0.131-0.447,0.325l-1.688,5.195
			h-5.462c-0.204,0-0.385,0.131-0.447,0.325s0.006,0.407,0.171,0.527l4.419,3.211l-1.688,5.195
			c-0.063,0.194,0.006,0.407,0.171,0.527c0.082,0.059,0.179,0.09,0.276,0.09s0.194-0.03,0.276-0.09l4.419-3.211l4.419,3.211
			c0.082,0.059,0.179,0.09,0.276,0.09s0.194-0.03,0.276-0.09c0.165-0.12,0.234-0.333,0.171-0.527l-1.688-5.195l4.401-3.198
			c0.128-0.084,0.214-0.229,0.214-0.393c0-0.26-0.209-0.47-0.468-0.47h-0.005h-5.462l-1.688-5.195
			C516.097,512.096,515.916,511.965,515.712,511.965L515.712,511.965z"/>
	</g>
	<polygon fill="#FFFFFF" points="179.958,718.917 133.001,718.917 133.001,700 118.334,700 118.334,718.917 100.042,718.917 
		100.042,733.584 118.334,733.584 118.334,749.512 133.001,744.302 133.001,733.584 179.958,733.584 	"/>
	<polygon fill="#D33131" points="100.042,718.917 118.334,718.917 118.334,700 99.958,700 99.958,718.917 	"/>
	<polygon fill="#D33131" points="118.334,749.512 118.334,733.584 100.042,733.584 99.958,733.584 99.958,756.04 118.334,749.512 	
		"/>
	<polygon fill="#D33131" points="133.001,744.302 140.75,741.549 140.826,741.522 179.958,755.967 179.958,733.584 133.001,733.584 
			"/>
	<polygon fill="#D33131" points="133.001,718.917 179.958,718.917 179.958,700 140.75,700 140.75,700 133.001,700 	"/>
	<g>
		<polygon fill="#D33131" points="133.001,633.917 180.042,633.917 180.042,633.917 180.042,600.062 133.001,600.062 		"/>
		<polygon fill="#D33131" points="100.042,633.917 118.334,633.917 118.334,600.062 100,600.062 100,633.917 		"/>
		<polygon fill="#D33131" points="180.042,648.584 133.001,648.584 133.001,680.104 133.001,680.104 180.042,680.104 
			180.042,648.584 		"/>
		<polygon fill="#D33131" points="118.334,680.104 118.334,648.584 100.042,648.584 100,648.584 100,680.104 118.334,680.104 		"/>
	</g>
	<g>
		<path fill="#FFC200" d="M528.648,513.078c-0.048,0-0.092-0.03-0.108-0.076l-0.917-2.579c0,0-2.739,0.076-2.74,0.076
			c-0.048,0-0.092-0.03-0.108-0.076c-0.017-0.046-0.001-0.099,0.038-0.129l2.17-1.669l-0.918-2.58
			c-0.017-0.046-0.001-0.099,0.039-0.129c0.021-0.016,0.045-0.024,0.069-0.024c0.022,0,0.045,0.006,0.065,0.021l2.259,1.546
			l2.168-1.669c0.022-0.016,0.046-0.024,0.07-0.024c0.022,0,0.045,0.006,0.065,0.021c0.042,0.028,0.059,0.079,0.046,0.126
			l-0.773,2.627l2.258,1.547c0.042,0.028,0.059,0.079,0.046,0.126c-0.015,0.048-0.057,0.081-0.107,0.082l-2.736,0.075l-0.774,2.626
			C528.742,513.044,528.699,513.077,528.648,513.078C528.65,513.078,528.649,513.078,528.648,513.078z"/>
		<path fill="#FFC200" d="M530.736,505.88l-0.797,2.706l2.326,1.594l-2.82,0.078l-0.797,2.706l-0.946-2.657l-2.82,0.078l2.235-1.72
			l-0.946-2.657l2.326,1.594L530.736,505.88 M530.736,505.652c-0.049,0-0.098,0.016-0.14,0.048l-2.103,1.619l-2.19-1.5
			c-0.039-0.027-0.084-0.04-0.129-0.04c-0.049,0-0.098,0.016-0.14,0.048c-0.078,0.06-0.109,0.165-0.076,0.258l0.89,2.5l-2.103,1.619
			c-0.078,0.06-0.109,0.165-0.076,0.258c0.032,0.092,0.119,0.152,0.216,0.152c0.002,0,0.004,0,0.006,0l2.653-0.073l0.889,2.5
			c0.032,0.092,0.119,0.152,0.216,0.152c0.002,0,0.004,0,0.006,0c0.099-0.003,0.186-0.069,0.213-0.164l0.75-2.546l2.653-0.073
			c0.099-0.003,0.185-0.069,0.213-0.164c0.028-0.095-0.008-0.197-0.09-0.253l-2.19-1.5l0.75-2.546
			c0.028-0.095-0.008-0.197-0.09-0.253C530.825,505.666,530.781,505.652,530.736,505.652L530.736,505.652z"/>
	</g>
	<g>
		<path fill="#FFC200" d="M535.134,520.279c-0.048-0.014-0.082-0.055-0.084-0.105l-0.133-2.733l-2.641-0.717
			c-0.048-0.014-0.082-0.055-0.084-0.105c-0.003-0.049,0.027-0.095,0.073-0.113l2.559-0.972l-0.133-2.734
			c-0.003-0.049,0.027-0.095,0.073-0.113c0.014-0.005,0.027-0.007,0.041-0.007c0.033,0,0.067,0.016,0.09,0.043l1.715,2.133
			l2.559-0.972c0.014-0.005,0.027-0.007,0.041-0.007c0.033,0,0.067,0.016,0.09,0.043c0.03,0.039,0.033,0.093,0.006,0.135
			l-1.499,2.29l1.716,2.133c0.03,0.039,0.033,0.093,0.006,0.134c-0.022,0.032-0.058,0.052-0.096,0.052
			c-0.01,0-0.021-0.001-0.029-0.004l-2.642-0.717l-1.499,2.29c-0.022,0.032-0.058,0.052-0.096,0.052
			C535.154,520.284,535.143,520.283,535.134,520.279z"/>
		<path fill="#FFC200" d="M534.803,512.795l1.767,2.198l2.637-1.001l-1.544,2.36l1.767,2.198l-2.721-0.739l-1.544,2.36l-0.138-2.817
			l-2.721-0.739l2.637-1.001L534.803,512.795 M539.207,513.991h0.005 M534.803,512.565c-0.027,0-0.054,0.005-0.081,0.015
			c-0.093,0.035-0.152,0.126-0.147,0.225l0.129,2.651l-2.482,0.943c-0.093,0.035-0.152,0.126-0.147,0.225
			c0.005,0.099,0.073,0.184,0.169,0.21l2.561,0.695l0.129,2.651c0.005,0.099,0.073,0.184,0.169,0.21
			c0.02,0.005,0.04,0.008,0.059,0.008c0.076,0,0.148-0.038,0.192-0.103l1.454-2.221l2.561,0.695c0.02,0.005,0.04,0.008,0.059,0.008
			c0.076,0,0.148-0.038,0.192-0.103c0.054-0.083,0.049-0.192-0.014-0.269l-1.663-2.069l1.44-2.201
			c0.033-0.04,0.053-0.09,0.053-0.145c0-0.126-0.1-0.228-0.226-0.228h-0.003c-0.001,0-0.001,0-0.002,0c-0.006,0-0.014,0-0.02,0.001
			c-0.023,0.002-0.045,0.007-0.066,0.016l-2.477,0.941l-1.663-2.069C534.937,512.596,534.871,512.565,534.803,512.565
			L534.803,512.565z"/>
	</g>
	<g>
		<path fill="#FFC200" d="M538.331,530.13c-0.023,0-0.047-0.007-0.067-0.022l-2.214-1.609l-2.215,1.609
			c-0.021,0.015-0.044,0.022-0.067,0.022c-0.023,0-0.047-0.007-0.067-0.022c-0.04-0.029-0.057-0.081-0.042-0.128l0.847-2.604
			l-2.215-1.609c-0.04-0.029-0.057-0.081-0.042-0.128c0.016-0.047,0.059-0.079,0.108-0.079h2.737l0.847-2.604
			c0.016-0.047,0.059-0.079,0.108-0.079l0,0c0.05,0,0.094,0.032,0.108,0.079l0.846,2.604h2.737c0.05,0,0.094,0.032,0.108,0.079
			c0.016,0.047-0.002,0.099-0.042,0.128l-2.215,1.609l0.847,2.604c0.016,0.047-0.002,0.099-0.042,0.128
			C538.378,530.122,538.355,530.13,538.331,530.13z"/>
		<path fill="#FFC200" d="M536.051,522.993l0.872,2.682h2.821l-2.281,1.658l0.872,2.682l-2.281-1.658l-2.281,1.658l0.872-2.682
			l-2.281-1.658h2.821L536.051,522.993 M539.742,525.676h0.005 M536.051,522.764c-0.099,0-0.187,0.064-0.218,0.159l-0.821,2.524
			h-2.654c-0.099,0-0.187,0.064-0.218,0.159c-0.031,0.095,0.003,0.197,0.083,0.255l2.147,1.56l-0.821,2.524
			c-0.03,0.094,0.003,0.197,0.083,0.255c0.04,0.029,0.088,0.044,0.135,0.044c0.047,0,0.095-0.015,0.135-0.044l2.147-1.56l2.147,1.56
			c0.04,0.029,0.088,0.044,0.135,0.044c0.047,0,0.095-0.015,0.135-0.044c0.08-0.058,0.114-0.162,0.083-0.255l-0.821-2.524
			l2.135-1.552c0.065-0.041,0.108-0.112,0.108-0.193c0-0.126-0.1-0.228-0.226-0.228h-0.005h-2.654l-0.821-2.524
			C536.237,522.828,536.15,522.764,536.051,522.764L536.051,522.764z"/>
	</g>
	<g>
		<path fill="#FFC200" d="M527.206,538.07c-0.042,0-0.08-0.023-0.101-0.06l-1.302-2.408c0,0-2.706,0.497-2.713,0.497
			c-0.042,0-0.08-0.023-0.101-0.06c-0.023-0.044-0.017-0.097,0.019-0.133l1.887-1.982l-1.302-2.408
			c-0.023-0.044-0.017-0.097,0.019-0.133c0.022-0.023,0.052-0.035,0.082-0.035c0.017,0,0.033,0.004,0.05,0.011l2.468,1.182
			l1.888-1.982c0.022-0.023,0.052-0.035,0.082-0.035c0.017,0,0.033,0.004,0.05,0.011c0.044,0.022,0.07,0.069,0.064,0.119
			l-0.362,2.713l2.469,1.182c0.044,0.022,0.07,0.069,0.064,0.119c-0.006,0.049-0.044,0.088-0.093,0.097l-2.691,0.494l-0.363,2.714
			c-0.006,0.049-0.044,0.088-0.093,0.097C527.22,538.069,527.213,538.07,527.206,538.07z"/>
		<path fill="#FFC200" d="M528.182,530.636l-0.372,2.796l2.543,1.218l-2.774,0.51l-0.372,2.796l-1.342-2.481l-2.774,0.51
			l1.945-2.043l-1.342-2.481l2.543,1.218L528.182,530.636 M528.182,530.408c-0.062,0-0.122,0.025-0.166,0.071l-1.83,1.923
			l-2.394-1.146c-0.031-0.015-0.066-0.023-0.099-0.023c-0.062,0-0.122,0.025-0.166,0.071c-0.069,0.072-0.082,0.179-0.035,0.267
			l1.263,2.335l-1.83,1.923c-0.069,0.072-0.082,0.179-0.035,0.267c0.041,0.075,0.118,0.12,0.201,0.12
			c0.014,0,0.027-0.001,0.042-0.004l2.611-0.48l1.263,2.335c0.041,0.075,0.118,0.12,0.201,0.12c0.014,0,0.027-0.001,0.042-0.004
			c0.098-0.018,0.172-0.097,0.186-0.195l0.35-2.631l2.61-0.48c0.098-0.018,0.172-0.097,0.186-0.195s-0.039-0.194-0.128-0.237
			l-2.394-1.146l0.35-2.631c0.014-0.098-0.039-0.194-0.128-0.237C528.25,530.415,528.215,530.408,528.182,530.408L528.182,530.408z"
			/>
	</g>
	<circle fill="#1CB0F6" cx="339.75" cy="40.75" r="16.196"/>
	<path fill="#FFFFFF" d="M324.042,36.868c-0.307,1.246-0.488,2.541-0.488,3.882c0,0.546,0.029,1.086,0.082,1.619
		c4.03-1.036,8.551-1.619,13.331-1.619c7.016,0,13.462,1.263,18.624,3.368c0.23-1.087,0.356-2.212,0.356-3.368
		c0-0.662-0.052-1.311-0.129-1.952c-5.198-2.157-11.738-3.447-18.851-3.447C332.347,35.351,327.969,35.897,324.042,36.868z"/>
	<circle fill="#FFFFFF" cx="345.149" cy="32.483" r="1.012"/>
	<circle fill="#FFFFFF" cx="330.302" cy="44.63" r="1.012"/>
	<circle fill="#FFFFFF" cx="335.364" cy="43.871" r="0.759"/>
	<circle fill="#FFFFFF" cx="332.664" cy="47.92" r="0.759"/>
	<circle fill="#FFFFFF" cx="348.86" cy="49.27" r="0.759"/>
	<circle fill="#FFFFFF" cx="350.8" cy="46.317" r="0.759"/>
	<path fill="#FFCE00" d="M340.5,102.331c-0.177-0.14-0.428-0.14-0.605,0l-36.547,28.794c-0.118,0.093-0.187,0.235-0.187,0.385
		s0.069,0.292,0.187,0.385l20.082,15.822l17.438-6.195l16.316,6.023l19.863-15.65c0.118-0.093,0.187-0.235,0.187-0.385
		s-0.069-0.292-0.187-0.385L340.5,102.331z"/>
	<path fill="#1CB0F6" d="M339.75,114.554c-8.945,0-16.196,7.251-16.196,16.196c0,6.006,3.277,11.237,8.133,14.033l9.181-3.261
		l7.659,2.827c4.46-2.885,7.419-7.892,7.419-13.599C355.946,121.805,348.695,114.554,339.75,114.554z"/>
	<path fill="#FFFFFF" d="M324.042,126.868c-0.307,1.246-0.488,2.541-0.488,3.882c0,0.546,0.029,1.086,0.082,1.619
		c4.03-1.036,8.551-1.619,13.331-1.619c7.016,0,13.462,1.263,18.624,3.368c0.23-1.087,0.356-2.212,0.356-3.368
		c0-0.662-0.052-1.311-0.129-1.952c-5.198-2.157-11.738-3.447-18.851-3.447C332.347,125.351,327.969,125.897,324.042,126.868z"/>
	<circle fill="#FFFFFF" cx="345.149" cy="122.483" r="1.012"/>
	<circle fill="#FFFFFF" cx="330.302" cy="134.63" r="1.012"/>
	<circle fill="#FFFFFF" cx="335.364" cy="133.871" r="0.759"/>
	<circle fill="#FFFFFF" cx="332.664" cy="137.92" r="0.759"/>
	<circle fill="#FFFFFF" cx="348.86" cy="139.27" r="0.759"/>
	<circle fill="#FFFFFF" cx="350.8" cy="136.317" r="0.759"/>
	<g>
		<path fill="#FFFFFF" stroke="#FFFFFF" stroke-width="3.3349" stroke-miterlimit="10" d="M835.42,447.919v-1.027
			c0-8.152,10.592-10.27,10.592-16.818c0-3.017-2.696-5.328-6.226-5.328c-1.925,0-3.595,0.706-4.75,1.284
			c-1.476,0.77-2.953,0.77-3.852-0.641l-1.092-1.605c-1.027-1.412-1.027-2.631,0.449-3.595c1.925-1.284,5.391-2.952,9.949-2.952
			c7.253,0,14.058,4.493,14.058,12.068c0,10.078-10.398,11.811-11.169,18.294l-0.128,1.092c-0.321,1.348-1.027,1.862-2.568,1.862
			h-2.568C836.382,450.551,835.42,449.652,835.42,447.919z M835.42,458.767c0-1.733,0.963-2.696,2.696-2.696h2.568
			c1.733,0,2.631,0.963,2.631,2.696v2.247c0,1.797-0.898,2.696-2.631,2.696h-2.568c-1.733,0-2.696-0.898-2.696-2.696V458.767z"/>
	</g>
	<circle fill="none" stroke="#1CB0F6" stroke-width="1.9204" stroke-miterlimit="10" cx="40.678" cy="441.344" r="8.042"/>
	<polygon fill="#1CB0F6" points="40.595,434.123 41.021,438.568 42.8,434.473 41.832,438.832 44.79,435.487 42.522,439.333 
		46.369,437.066 43.024,440.023 47.383,439.055 43.287,440.834 47.732,441.261 43.287,441.687 47.383,443.466 43.024,442.498 
		46.369,445.456 42.522,443.188 44.79,447.035 41.832,443.69 42.8,448.049 41.021,443.953 40.595,448.398 40.168,443.953 
		38.389,448.049 39.357,443.69 36.4,447.035 38.667,443.188 34.821,445.456 38.166,442.498 33.807,443.466 37.902,441.687 
		33.457,441.261 37.902,440.834 33.807,439.055 38.166,440.023 34.821,437.066 38.667,439.333 36.4,435.487 39.357,438.832 
		38.389,434.473 40.168,438.568 	"/>
	<circle fill="none" stroke="#1CB0F6" stroke-width="1.9204" stroke-miterlimit="10" cx="40.678" cy="524.532" r="8.042"/>
	<polygon fill="#1CB0F6" points="40.595,517.311 41.021,521.756 42.8,517.661 41.832,522.02 44.79,518.675 42.522,522.521 
		46.369,520.254 43.024,523.211 47.383,522.243 43.287,524.022 47.732,524.449 43.287,524.875 47.383,526.654 43.024,525.686 
		46.369,528.644 42.522,526.376 44.79,530.223 41.832,526.878 42.8,531.237 41.021,527.141 40.595,531.586 40.168,527.141 
		38.389,531.237 39.357,526.878 36.4,530.223 38.667,526.376 34.821,528.644 38.166,525.686 33.807,526.654 37.902,524.875 
		33.457,524.449 37.902,524.022 33.807,522.243 38.166,523.211 34.821,520.254 38.667,522.521 36.4,518.675 39.357,522.02 
		38.389,517.661 40.168,521.756 	"/>
	<path fill="#1CB0F6" d="M149.474,440.967l4.662-8.074h-9.323l-4.451-7.709l-4.451,7.709h-9.323l4.662,8.074l-4.662,8.074h9.323
		l4.451,7.709l4.451-7.709h9.323L149.474,440.967z M150.025,435.265l-1.922,3.328l-1.922-3.328H150.025z M146.733,440.967
		l-3.291,5.702h-6.161l-3.291-5.702l3.291-5.702h6.161L146.733,440.967z M140.361,429.93l1.71,2.963h-3.421L140.361,429.93z
		 M130.697,435.265h3.843l-1.922,3.328L130.697,435.265z M130.697,446.668l1.922-3.328l1.922,3.328H130.697z M140.361,452.003
		l-1.71-2.963h3.421L140.361,452.003z M148.103,443.34l1.922,3.328h-3.843L148.103,443.34z"/>
	<path fill="#1CB0F6" d="M147.934,523.967l3.874-6.71h-7.748l-3.699-6.407l-3.699,6.407h-7.748l3.874,6.71l-3.874,6.71h7.748
		l3.699,6.407l3.699-6.407h7.748L147.934,523.967z M148.392,519.228l-1.597,2.766l-1.597-2.766H148.392z M145.656,523.967
		l-2.735,4.738h-5.12l-2.735-4.738l2.735-4.738h5.12L145.656,523.967z M140.361,514.795l1.421,2.462h-2.843L140.361,514.795z
		 M132.33,519.228h3.193l-1.597,2.766L132.33,519.228z M132.33,528.705l1.597-2.766l1.597,2.766H132.33z M140.361,533.139
		l-1.421-2.462h2.843L140.361,533.139z M146.795,525.939l1.597,2.766h-3.193L146.795,525.939z"/>
	<path fill="#FFC200" d="M945.699,233.76c-2.284,0-2.898,1.773-3.921,1.773c0,0,0.205-3.819-0.955-3.819h-2.319
		c0,0-1.5,0.341-1.705,1.159c0.614-0.273,1.841-0.068,1.841,1.637c0,0.415-0.277,0.702-0.495,0.864
		c-1.008-0.12-1.552-1.648-3.256-1.648c-1.773,0-2.182,1.466-2.182,2.182s0,7.842,0,7.842l5.251-0.75l-1.637,2.932l8.251,0.068
		l-1.909-3.103l5.012,1.023l0.034-8.694C947.71,235.227,947.983,233.76,945.699,233.76z"/>
	<path fill="#FFC200" d="M946.366,319.593c-2.284,0-2.898,1.773-3.921,1.773c0,0,0.205-3.819-0.955-3.819h-2.319
		c0,0-1.5,0.341-1.705,1.159c0.614-0.273,1.841-0.068,1.841,1.637c0,0.415-0.277,0.702-0.495,0.864
		c-1.008-0.12-1.552-1.648-3.256-1.648c-1.773,0-2.182,1.466-2.182,2.182s0,7.842,0,7.842l5.251-0.75l-1.637,2.932l8.251,0.068
		l-1.909-3.103l5.012,1.023l0.034-8.694C948.377,321.06,948.65,319.593,946.366,319.593z"/>
	<g>
		<polygon fill="#D33131" points="540.5,40.312 500,40.312 500,50 580.042,50 580.042,40.333 540.5,40.333 		"/>
		<rect x="500" y="60.333" fill="#D33131" width="80.042" height="9.667"/>
		<rect x="540.542" fill="#D33131" width="39.5" height="10"/>
		<rect x="540.542" y="20.333" fill="#D33131" width="39.5" height="9.667"/>
	</g>
	<rect x="540.5" y="30" fill="#FFFFFF" width="39.542" height="10.333"/>
	<rect x="540.5" y="10" fill="#FFFFFF" width="39.542" height="10.333"/>
	<polygon fill="#1CB0F6" points="540.589,100 500,100 500,156.031 540.589,141.621 	"/>
	<rect x="500" y="50" fill="#FFFFFF" width="80.042" height="10.333"/>
	<rect x="500" y="70" fill="#FFFFFF" width="80.042" height="10.042"/>
	<g>
		<path fill="#FFFFFF" d="M511.677,107.386h0.006 M508.524,104.28c-0.353,0-0.666,0.227-0.775,0.563l-0.561,1.728h-1.817
			c-0.353,0-0.666,0.227-0.775,0.563c-0.109,0.336,0.01,0.704,0.296,0.912l1.47,1.068l-0.561,1.728
			c-0.109,0.336,0.01,0.704,0.296,0.912c0.143,0.104,0.311,0.156,0.479,0.156c0.168,0,0.336-0.052,0.479-0.156l1.47-1.068
			l1.47,1.068c0.143,0.104,0.311,0.156,0.479,0.156c0.168,0,0.336-0.052,0.479-0.156c0.286-0.208,0.405-0.576,0.296-0.912
			l-0.561-1.728l1.444-1.049c0.219-0.146,0.365-0.395,0.365-0.678c0-0.45-0.362-0.815-0.812-0.815h-0.006h-1.817l-0.561-1.728
			C509.19,104.507,508.877,104.28,508.524,104.28L508.524,104.28z"/>
	</g>
	<g>
		<path fill="#FFFFFF" d="M523.552,107.386h0.006 M520.398,104.28c-0.353,0-0.666,0.227-0.775,0.563l-0.561,1.728h-1.817
			c-0.353,0-0.666,0.227-0.775,0.563c-0.109,0.336,0.01,0.704,0.296,0.912l1.47,1.068l-0.561,1.728
			c-0.109,0.336,0.01,0.704,0.296,0.912c0.143,0.104,0.311,0.156,0.479,0.156c0.168,0,0.336-0.052,0.479-0.156l1.47-1.068
			l1.47,1.068c0.143,0.104,0.311,0.156,0.479,0.156c0.168,0,0.336-0.052,0.479-0.156c0.286-0.208,0.405-0.576,0.296-0.912
			l-0.561-1.728l1.444-1.049c0.219-0.146,0.365-0.395,0.365-0.678c0-0.45-0.362-0.815-0.812-0.815h-0.006h-1.817l-0.561-1.728
			C521.064,104.507,520.751,104.28,520.398,104.28L520.398,104.28z"/>
	</g>
	<g>
		<path fill="#FFFFFF" d="M535.426,107.386h0.006 M532.273,104.28c-0.353,0-0.666,0.227-0.775,0.563l-0.561,1.728h-1.817
			c-0.353,0-0.666,0.227-0.775,0.563c-0.109,0.336,0.01,0.704,0.296,0.912l1.47,1.068l-0.561,1.728
			c-0.109,0.336,0.01,0.704,0.296,0.912c0.143,0.104,0.311,0.156,0.479,0.156c0.168,0,0.336-0.052,0.479-0.156l1.47-1.068
			l1.47,1.068c0.143,0.104,0.311,0.156,0.479,0.156c0.168,0,0.336-0.052,0.479-0.156c0.286-0.208,0.405-0.576,0.296-0.912
			l-0.561-1.728l1.444-1.049c0.219-0.146,0.365-0.395,0.365-0.678c0-0.45-0.362-0.815-0.812-0.815h-0.006h-1.817l-0.561-1.728
			C532.939,104.507,532.626,104.28,532.273,104.28L532.273,104.28z"/>
	</g>
	<g>
		<path fill="#FFFFFF" d="M511.677,119.261h0.006 M508.524,116.154c-0.353,0-0.666,0.227-0.775,0.563l-0.561,1.728h-1.817
			c-0.353,0-0.666,0.227-0.775,0.563c-0.109,0.336,0.01,0.704,0.296,0.912l1.47,1.068l-0.561,1.728
			c-0.109,0.336,0.01,0.704,0.296,0.912c0.143,0.104,0.311,0.156,0.479,0.156c0.168,0,0.336-0.052,0.479-0.156l1.47-1.068
			l1.47,1.068c0.143,0.104,0.311,0.156,0.479,0.156c0.168,0,0.336-0.052,0.479-0.156c0.286-0.208,0.405-0.576,0.296-0.912
			l-0.561-1.728l1.444-1.049c0.219-0.146,0.365-0.395,0.365-0.678c0-0.45-0.362-0.815-0.812-0.815h-0.006h-1.817l-0.561-1.728
			C509.19,116.382,508.877,116.154,508.524,116.154L508.524,116.154z"/>
	</g>
	<g>
		<path fill="#FFFFFF" d="M523.552,119.261h0.006 M520.398,116.154c-0.353,0-0.666,0.227-0.775,0.563l-0.561,1.728h-1.817
			c-0.353,0-0.666,0.227-0.775,0.563c-0.109,0.336,0.01,0.704,0.296,0.912l1.47,1.068l-0.561,1.728
			c-0.109,0.336,0.01,0.704,0.296,0.912c0.143,0.104,0.311,0.156,0.479,0.156c0.168,0,0.336-0.052,0.479-0.156l1.47-1.068
			l1.47,1.068c0.143,0.104,0.311,0.156,0.479,0.156c0.168,0,0.336-0.052,0.479-0.156c0.286-0.208,0.405-0.576,0.296-0.912
			l-0.561-1.728l1.444-1.049c0.219-0.146,0.365-0.395,0.365-0.678c0-0.45-0.362-0.815-0.812-0.815h-0.006h-1.817l-0.561-1.728
			C521.064,116.382,520.751,116.154,520.398,116.154L520.398,116.154z"/>
	</g>
	<g>
		<path fill="#FFFFFF" d="M535.426,119.261h0.006 M532.273,116.154c-0.353,0-0.666,0.227-0.775,0.563l-0.561,1.728h-1.817
			c-0.353,0-0.666,0.227-0.775,0.563c-0.109,0.336,0.01,0.704,0.296,0.912l1.47,1.068l-0.561,1.728
			c-0.109,0.336,0.01,0.704,0.296,0.912c0.143,0.104,0.311,0.156,0.479,0.156c0.168,0,0.336-0.052,0.479-0.156l1.47-1.068
			l1.47,1.068c0.143,0.104,0.311,0.156,0.479,0.156c0.168,0,0.336-0.052,0.479-0.156c0.286-0.208,0.405-0.576,0.296-0.912
			l-0.561-1.728l1.444-1.049c0.219-0.146,0.365-0.395,0.365-0.678c0-0.45-0.362-0.815-0.812-0.815h-0.006h-1.817l-0.561-1.728
			C532.939,116.382,532.626,116.154,532.273,116.154L532.273,116.154z"/>
	</g>
	<g>
		<path fill="#FFFFFF" d="M511.677,131.135h0.006 M508.524,128.029c-0.353,0-0.666,0.227-0.775,0.563l-0.561,1.728h-1.817
			c-0.353,0-0.666,0.227-0.775,0.563c-0.109,0.336,0.01,0.704,0.296,0.912l1.47,1.068l-0.561,1.728
			c-0.109,0.336,0.01,0.704,0.296,0.912c0.143,0.104,0.311,0.156,0.479,0.156c0.168,0,0.336-0.052,0.479-0.156l1.47-1.068
			l1.47,1.068c0.143,0.104,0.311,0.156,0.479,0.156c0.168,0,0.336-0.052,0.479-0.156c0.286-0.208,0.405-0.576,0.296-0.912
			l-0.561-1.728l1.444-1.049c0.219-0.146,0.365-0.395,0.365-0.678c0-0.45-0.362-0.815-0.812-0.815h-0.006h-1.817l-0.561-1.728
			C509.19,128.256,508.877,128.029,508.524,128.029L508.524,128.029z"/>
	</g>
	<g>
		<path fill="#FFFFFF" d="M523.552,131.135h0.006 M520.398,128.029c-0.353,0-0.666,0.227-0.775,0.563l-0.561,1.728h-1.817
			c-0.353,0-0.666,0.227-0.775,0.563c-0.109,0.336,0.01,0.704,0.296,0.912l1.47,1.068l-0.561,1.728
			c-0.109,0.336,0.01,0.704,0.296,0.912c0.143,0.104,0.311,0.156,0.479,0.156c0.168,0,0.336-0.052,0.479-0.156l1.47-1.068
			l1.47,1.068c0.143,0.104,0.311,0.156,0.479,0.156c0.168,0,0.336-0.052,0.479-0.156c0.286-0.208,0.405-0.576,0.296-0.912
			l-0.561-1.728l1.444-1.049c0.219-0.146,0.365-0.395,0.365-0.678c0-0.45-0.362-0.815-0.812-0.815h-0.006h-1.817l-0.561-1.728
			C521.064,128.256,520.751,128.029,520.398,128.029L520.398,128.029z"/>
	</g>
	<g>
		<path fill="#FFFFFF" d="M535.426,131.135h0.006 M532.273,128.029c-0.353,0-0.666,0.227-0.775,0.563l-0.561,1.728h-1.817
			c-0.353,0-0.666,0.227-0.775,0.563c-0.109,0.336,0.01,0.704,0.296,0.912l1.47,1.068l-0.561,1.728
			c-0.109,0.336,0.01,0.704,0.296,0.912c0.143,0.104,0.311,0.156,0.479,0.156c0.168,0,0.336-0.052,0.479-0.156l1.47-1.068
			l1.47,1.068c0.143,0.104,0.311,0.156,0.479,0.156c0.168,0,0.336-0.052,0.479-0.156c0.286-0.208,0.405-0.576,0.296-0.912
			l-0.561-1.728l1.444-1.049c0.219-0.146,0.365-0.395,0.365-0.678c0-0.45-0.362-0.815-0.812-0.815h-0.006h-1.817l-0.561-1.728
			C532.939,128.256,532.626,128.029,532.273,128.029L532.273,128.029z"/>
	</g>
	<g>
		<path fill="#FFFFFF" d="M511.677,143.135h0.006 M508.524,140.029c-0.353,0-0.666,0.227-0.775,0.563l-0.561,1.728h-1.817
			c-0.353,0-0.666,0.227-0.775,0.563c-0.109,0.336,0.01,0.704,0.296,0.912l1.47,1.068l-0.561,1.728
			c-0.109,0.336,0.01,0.704,0.296,0.912c0.143,0.104,0.311,0.156,0.479,0.156c0.168,0,0.336-0.052,0.479-0.156l1.47-1.068
			l1.47,1.068c0.143,0.104,0.311,0.156,0.479,0.156c0.168,0,0.336-0.052,0.479-0.156c0.286-0.208,0.405-0.576,0.296-0.912
			l-0.561-1.728l1.444-1.049c0.219-0.146,0.365-0.395,0.365-0.678c0-0.45-0.362-0.815-0.812-0.815h-0.006h-1.817l-0.561-1.728
			C509.19,140.256,508.877,140.029,508.524,140.029L508.524,140.029z"/>
	</g>
	<g>
		<path fill="#FFFFFF" d="M523.552,143.135h0.006 M520.398,140.029c-0.353,0-0.666,0.227-0.775,0.563l-0.561,1.728h-1.817
			c-0.353,0-0.666,0.227-0.775,0.563c-0.109,0.336,0.01,0.704,0.296,0.912l1.47,1.068l-0.561,1.728
			c-0.109,0.336,0.01,0.704,0.296,0.912c0.143,0.104,0.311,0.156,0.479,0.156c0.168,0,0.336-0.052,0.479-0.156l1.47-1.068
			l1.47,1.068c0.143,0.104,0.311,0.156,0.479,0.156c0.168,0,0.336-0.052,0.479-0.156c0.286-0.208,0.405-0.576,0.296-0.912
			l-0.561-1.728l1.444-1.049c0.219-0.146,0.365-0.395,0.365-0.678c0-0.45-0.362-0.815-0.812-0.815h-0.006h-1.817l-0.561-1.728
			C521.064,140.256,520.751,140.029,520.398,140.029L520.398,140.029z"/>
	</g>
	<rect x="540.542" y="100" fill="#D33131" width="39.5" height="10"/>
	<rect x="540.542" y="120.333" fill="#D33131" width="39.5" height="9.667"/>
	<rect x="540.5" y="130" fill="#FFFFFF" width="39.542" height="10.333"/>
	<rect x="540.5" y="110" fill="#FFFFFF" width="39.542" height="10.333"/>
	<g>
		<polyline fill="#FFFFFF" points="580,156.031 563.734,150 580.042,150 		"/>
	</g>
	<path fill="#FFFFFF" d="M530.109,144.863l-0.176,0.541l6.303-2.238c0-0.011,0.008-0.02,0.008-0.031c0-0.45-0.362-0.815-0.812-0.815
		h-0.006h-1.817l-0.561-1.728c-0.109-0.336-0.422-0.563-0.775-0.563c-0.353,0-0.666,0.227-0.775,0.563l-0.561,1.728h-1.817
		c-0.353,0-0.666,0.227-0.775,0.563c-0.109,0.336,0.01,0.704,0.296,0.912L530.109,144.863z"/>
	<polygon fill="#D33131" points="560.508,140.333 560.508,140.312 540.5,140.312 540.5,141.652 540.868,141.522 563.734,150 
		580.042,150 580.042,140.333 	"/>
	<circle fill="#D33131" cx="440.333" cy="239" r="23.667"/>
	<path fill="#FFFFFF" d="M400.145,300.063v55.938l22.281-7.915c-3.211-4.04-5.134-9.149-5.134-14.71
		c0-13.071,10.596-23.667,23.667-23.667s23.667,10.596,23.667,23.667c0,5.658-1.988,10.849-5.3,14.921L480,355.928v-55.865H400.145z
		"/>
	<path fill="#D33131" d="M440.958,309.708c-13.071,0-23.667,10.596-23.667,23.667c0,5.561,1.923,10.671,5.134,14.71l18.513-6.577
		l18.386,6.787c3.312-4.072,5.3-9.263,5.3-14.921C464.625,320.304,454.029,309.708,440.958,309.708z"/>
	<rect x="200" y="400.062" fill="#FFFFFF" width="80.042" height="80.042"/>
	<rect x="800" y="200.062" fill="#7AC70C" width="80.042" height="80.042"/>
	<circle fill="#D33131" cx="840.333" cy="239" r="23.667"/>
	<path fill="#7AC70C" d="M800.145,300.063v55.938l22.281-7.915c-3.211-4.04-5.134-9.149-5.134-14.71
		c0-13.071,10.596-23.667,23.667-23.667s23.667,10.596,23.667,23.667c0,5.658-1.988,10.849-5.3,14.921L880,355.928v-55.865H800.145z
		"/>
	<path fill="#D33131" d="M840.958,309.708c-13.071,0-23.667,10.596-23.667,23.667c0,5.561,1.923,10.671,5.134,14.71l18.513-6.577
		l18.386,6.787c3.312-4.072,5.3-9.263,5.3-14.921C864.625,320.304,854.029,309.708,840.958,309.708z"/>
	<polyline fill="#FFFFFF" points="563.734,150 580.042,150 580.042,156.146 	"/>
	<rect x="600" y="200" fill="#1CB0F6" width="40.589" height="40.333"/>
	<polygon fill="#1CB0F6" points="640.589,300 600,300 600,356.031 640.589,341.621 	"/>
	<polygon fill="#D33131" points="640.542,200 640.542,210 640.5,210 640.5,220.333 640.542,220.333 640.542,230 640.5,230 
		640.5,240.312 600,240.312 600,250 600,260.333 600,270 600,280.042 680.042,280.042 680.042,270 680.042,260.333 680.042,250 
		680.042,240.333 680.042,230 680.042,200 	"/>
	<polygon fill="#D33131" points="640.542,300 640.542,310 640.5,310 640.5,320.333 640.542,320.333 640.542,330 640.5,330 
		640.5,340.312 640.5,340.333 640.5,341.652 640.868,341.522 663.734,350 680.042,356.146 680.042,350 680.042,340.333 680.042,330 
		680.042,320.333 680.042,310 680.042,300 	"/>
	<g>
		<g>
			<path fill="#FFFFFF" d="M634.818,218.299l-4.219-1.188c0.239,0.874,0.376,1.788,0.376,2.737c0,0.162-0.017,0.321-0.025,0.482
				L634.818,218.299z"/>
			<path fill="#FFFFFF" d="M619.94,209.491l-2.594-3.886l-0.8,4.668C617.599,209.828,618.744,209.564,619.94,209.491z"/>
			<path fill="#FFFFFF" d="M615.854,210.606l-4.027-2.544l1.191,4.682C613.83,211.879,614.786,211.153,615.854,210.606z"/>
			<path fill="#FFFFFF" d="M624.16,210.103l-0.771-4.498l-2.579,3.865C621.985,209.495,623.111,209.717,624.16,210.103z"/>
			<path fill="#FFFFFF" d="M627.807,212.388l1.101-4.325l-3.838,2.425C626.085,210.974,627.009,211.614,627.807,212.388z"/>
			<path fill="#FFFFFF" d="M630.231,216l2.72-3.447l-4.392,0.638C629.257,214.026,629.822,214.974,630.231,216z"/>
			<path fill="#FFFFFF" d="M612.561,213.248l-4.777-0.695l3.018,3.825C611.208,215.23,611.802,214.17,612.561,213.248z"/>
			<path fill="#FFFFFF" d="M623.041,229.937l3.237,3.157l-0.177-4.449C625.169,229.23,624.14,229.669,623.041,229.937z"/>
			<path fill="#FFFFFF" d="M627.01,228.006l4.156,1.536l-1.938-3.925C628.62,226.527,627.868,227.33,627.01,228.006z"/>
			<path fill="#FFFFFF" d="M629.824,224.593l4.364-0.284l-3.357-2.789C630.653,222.61,630.312,223.644,629.824,224.593z"/>
			<path fill="#FFFFFF" d="M610.194,219.849c0-0.996,0.148-1.957,0.411-2.87l-4.689,1.32l4.314,2.268
				C610.214,220.328,610.194,220.092,610.194,219.849z"/>
			<path fill="#FFFFFF" d="M620.585,230.24c-0.66,0-1.304-0.069-1.929-0.186l1.711,4.295l1.683-4.224
				C621.57,230.194,621.084,230.24,620.585,230.24z"/>
			<path fill="#FFFFFF" d="M610.292,221.198l-3.745,3.11l4.814,0.313C610.817,223.572,610.45,222.419,610.292,221.198z"/>
			<path fill="#FFFFFF" d="M611.702,225.22l-2.133,4.322l4.447-1.643C613.098,227.148,612.32,226.239,611.702,225.22z"/>
			<path fill="#FFFFFF" d="M614.645,228.368l-0.188,4.725l3.329-3.245C616.648,229.53,615.589,229.028,614.645,228.368z"/>
		</g>
		<circle fill="#FFFFFF" cx="620.585" cy="219.849" r="8.751"/>
	</g>
	<rect x="699.938" y="199.793" fill="#1CB0F6" width="40.526" height="40.292"/>
	<g>
		<g>
			<path fill="#FFFFFF" d="M633.818,319.299l-4.219-1.188c0.239,0.874,0.376,1.788,0.376,2.737c0,0.162-0.017,0.321-0.025,0.482
				L633.818,319.299z"/>
			<path fill="#FFFFFF" d="M618.94,310.491l-2.594-3.886l-0.8,4.668C616.599,310.828,617.744,310.565,618.94,310.491z"/>
			<path fill="#FFFFFF" d="M614.854,311.606l-4.027-2.544l1.191,4.682C612.83,312.879,613.786,312.153,614.854,311.606z"/>
			<path fill="#FFFFFF" d="M623.16,311.103l-0.771-4.498l-2.579,3.865C620.985,310.495,622.111,310.717,623.16,311.103z"/>
			<path fill="#FFFFFF" d="M626.807,313.388l1.101-4.325l-3.838,2.425C625.085,311.974,626.009,312.614,626.807,313.388z"/>
			<path fill="#FFFFFF" d="M629.231,317l2.72-3.447l-4.392,0.638C628.257,315.026,628.822,315.974,629.231,317z"/>
			<path fill="#FFFFFF" d="M611.561,314.248l-4.777-0.695l3.018,3.825C610.208,316.23,610.802,315.17,611.561,314.248z"/>
			<path fill="#FFFFFF" d="M622.041,330.937l3.237,3.157l-0.177-4.449C624.169,330.23,623.14,330.669,622.041,330.937z"/>
			<path fill="#FFFFFF" d="M626.01,329.006l4.156,1.536l-1.938-3.925C627.62,327.527,626.868,328.33,626.01,329.006z"/>
			<path fill="#FFFFFF" d="M628.824,325.593l4.364-0.284l-3.357-2.789C629.653,323.61,629.312,324.644,628.824,325.593z"/>
			<path fill="#FFFFFF" d="M609.194,320.849c0-0.996,0.148-1.957,0.411-2.87l-4.689,1.32l4.314,2.268
				C609.214,321.328,609.194,321.092,609.194,320.849z"/>
			<path fill="#FFFFFF" d="M619.585,331.24c-0.66,0-1.304-0.069-1.929-0.186l1.711,4.295l1.683-4.224
				C620.57,331.194,620.084,331.24,619.585,331.24z"/>
			<path fill="#FFFFFF" d="M609.292,322.198l-3.745,3.11l4.814,0.313C609.817,324.572,609.45,323.419,609.292,322.198z"/>
			<path fill="#FFFFFF" d="M610.702,326.22l-2.133,4.322l4.447-1.643C612.098,328.148,611.32,327.239,610.702,326.22z"/>
			<path fill="#FFFFFF" d="M613.645,329.368l-0.188,4.725l3.329-3.245C615.648,330.53,614.589,330.028,613.645,329.368z"/>
		</g>
		<circle fill="#FFFFFF" cx="619.585" cy="320.849" r="8.751"/>
	</g>
	<rect x="900" y="400" fill="#FFFFFF" width="40.589" height="40.333"/>
	<polygon fill="#FFFFFF" points="940.589,500 900,500 900,556.031 940.589,541.621 	"/>
	<polygon fill="#7AC70C" points="940.542,400 940.542,410 940.5,410 940.5,420.333 940.542,420.333 940.542,430 940.5,430 
		940.5,440.312 900,440.312 900,450 900,460.333 900,470 900,480.042 980.042,480.042 980.042,470 980.042,460.333 980.042,450 
		980.042,440.333 980.042,430 980.042,400 	"/>
	<polygon fill="#7AC70C" points="940.542,500 940.542,510 940.5,510 940.5,520.333 940.542,520.333 940.542,530 940.5,530 
		940.5,540.312 940.5,540.333 940.5,541.652 940.868,541.522 963.734,550 980.042,556.146 980.042,550 980.042,540.333 980.042,530 
		980.042,520.333 980.042,510 980.042,500 	"/>
	<rect x="740.438" y="199.832" fill="#1CB0F6" width="39.693" height="8.042"/>
	<rect x="740.438" y="207.883" fill="#FFFFFF" width="39.693" height="8.042"/>
	<rect x="700.029" y="215.883" fill="#FFFFFF" width="40.443" height="8.042"/>
	<rect x="716.604" y="200.058" fill="#FFFFFF" width="8.042" height="40.068"/>
	<rect x="699.938" y="300.043" fill="#1CB0F6" width="40.526" height="40.292"/>
	<rect x="700.029" y="316.133" fill="#FFFFFF" width="40.443" height="8.042"/>
	<rect x="716.604" y="300.058" fill="#FFFFFF" width="8.042" height="40.318"/>
	<rect x="740.438" y="215.935" fill="#1CB0F6" width="39.693" height="8.042"/>
	<rect x="740.438" y="223.992" fill="#FFFFFF" width="39.693" height="8.042"/>
	<path fill="#FFFFFF" d="M279.958,555.967V500H240.75h0h-40.792v56.039l24.05-8.717c-1.376-2.819-1.871-5.475-1.871-8.823
		c0-1.038,0.182-1.552,0.326-2.549c0.474-4.084,5.849-15.029,18.039-15.029c12.938,0,19.591,11.735,18.18,20.856
		c0.1-0.582-0.103,0.653-0.103,0.653c-0.347,2.012-0.719,3.141-1.588,4.917"/>
	<rect x="740.438" y="232.043" fill="#1CB0F6" width="39.693" height="8.042"/>
	<rect x="700.021" y="240.071" fill="#FFFFFF" width="80.026" height="7.986"/>
	<rect x="700.021" y="248.067" fill="#1CB0F6" width="80.026" height="7.892"/>
	<rect x="740.438" y="300.04" fill="#1CB0F6" width="39.693" height="8.042"/>
	<rect x="740.438" y="308.092" fill="#FFFFFF" width="39.693" height="8.042"/>
	<rect x="740.438" y="316.144" fill="#1CB0F6" width="39.693" height="8.042"/>
	<rect x="740.438" y="324.2" fill="#FFFFFF" width="39.693" height="8.042"/>
	<rect x="740.438" y="332.252" fill="#1CB0F6" width="39.693" height="8.042"/>
	<rect x="700.021" y="255.969" fill="#FFFFFF" width="80.026" height="7.892"/>
	<rect x="700.021" y="263.875" fill="#1CB0F6" width="80.026" height="7.892"/>
	<rect x="700.021" y="271.777" fill="#FFFFFF" width="80.026" height="7.892"/>
	<polygon fill="#FFFFFF" points="700.021,340.279 700.021,348.265 721.908,348.265 740.785,341.563 758.86,348.265 780.047,348.265 
		780.047,340.279 	"/>
	<g>
		<polygon fill="#1CB0F6" points="722.056,348.213 700.021,348.213 700.021,356.036 		"/>
		<polygon fill="#1CB0F6" points="758.718,348.213 779.917,356.073 779.917,356.167 780.047,356.167 780.047,348.213 		"/>
	</g>
	<path fill="#D33131" d="M240.549,420.52c-9.31,0-16.991,6.889-18.278,15.843c0.716,1.378,3.668,6.194,10.021,6.194
		c8.354,0,8.014-7.051,16.255-7.051c7.12,0,9.749,5.567,10.2,6.667c0.179-1.03,0.29-2.085,0.29-3.166
		C259.037,428.797,250.759,420.52,240.549,420.52z"/>
	<g>
		<path fill="#D33131" d="M252.934,425.31"/>
		<path fill="#D33131" d="M222.272,436.357"/>
		<path fill="#1CB0F6" d="M258.747,442.173c-0.451-1.1-3.08-6.667-10.2-6.667c-8.241,0-7.901,7.051-16.255,7.051
			c-6.352,0-9.305-4.815-10.021-6.194c-0.124,0.866-0.211,1.744-0.211,2.645c0,10.211,8.277,18.488,18.488,18.488
			c9.659,0,17.578-7.411,18.406-16.855C258.904,441.158,258.834,441.668,258.747,442.173z"/>
	</g>
	<g>
		
			<rect x="209.205" y="417.567" transform="matrix(-0.7071 0.7071 -0.7071 -0.7071 664.1976 562.1765)" fill="#262626" width="12.926" height="2.162"/>
		
			<rect x="211.086" y="419.449" transform="matrix(-0.7071 0.7071 -0.7071 -0.7071 668.7396 564.0582)" fill="#262626" width="12.926" height="2.162"/>
		
			<rect x="212.968" y="421.331" transform="matrix(-0.7071 0.7071 -0.7071 -0.7071 673.2832 565.9405)" fill="#262626" width="12.926" height="2.162"/>
	</g>
	<g>
		<path fill="#D33131" d="M258.579,542.43c0.087-0.501,0.157-1.009,0.206-1.522C258.74,541.423,258.666,541.929,258.579,542.43
			L258.579,542.43z"/>
		<path fill="#1CB0F6" d="M248.447,535.807c-8.186,0-7.848,7.004-16.146,7.004c-6.31,0-9.243-4.783-9.954-6.152
			c-0.124,0.86-0.209,1.733-0.209,2.627c0,2.886,0.684,5.606,1.871,8.036l16.707-5.935l0.066-0.023l16.209,5.983
			c0.749-1.532,1.289-3.183,1.588-4.918C258.131,541.336,255.519,535.807,248.447,535.807z"/>
	</g>
	<g>
		<g>
			
				<rect x="263.459" y="462.587" transform="matrix(-0.7071 0.7071 -0.7071 -0.7071 783.6432 603.0697)" fill="#262626" width="6.925" height="2.491"/>
			
				<rect x="271.285" y="454.726" transform="matrix(0.7071 0.7071 -0.7071 0.7071 403.8412 -58.4948)" fill="#262626" width="2.491" height="7.012"/>
		</g>
		<g>
			
				<rect x="261.291" y="460.419" transform="matrix(-0.7071 0.7071 -0.7071 -0.7071 778.4094 600.9012)" fill="#262626" width="6.925" height="2.491"/>
			
				<rect x="269.116" y="452.558" transform="matrix(0.7071 0.7071 -0.7071 0.7071 401.6731 -57.5961)" fill="#262626" width="2.491" height="7.012"/>
		</g>
		<g>
			
				<rect x="259.123" y="458.251" transform="matrix(-0.7071 0.7071 -0.7071 -0.7071 773.1747 598.7345)" fill="#262626" width="6.925" height="2.491"/>
			
				<rect x="266.948" y="450.39" transform="matrix(0.7071 0.7071 -0.7071 0.7071 399.5047 -56.6981)" fill="#262626" width="2.491" height="7.012"/>
		</g>
	</g>
	<g>
		
			<rect x="212.972" y="453.17" transform="matrix(-0.7071 -0.7071 0.7071 -0.7071 53.3946 930.619)" fill="#262626" width="12.926" height="2.162"/>
		
			<rect x="209.208" y="456.934" transform="matrix(-0.7071 -0.7071 0.7071 -0.7071 44.309 934.3832)" fill="#262626" width="12.926" height="2.162"/>
		<g>
			
				<rect x="212.104" y="452.606" transform="matrix(-0.7071 -0.7071 0.7071 -0.7071 46.4076 926.5973)" fill="#262626" width="6.01" height="2.162"/>
			
				<rect x="218.887" y="455.51" transform="matrix(-0.7071 0.7071 -0.7071 -0.7071 699.7549 627.2578)" fill="#262626" width="2.162" height="6.085"/>
		</g>
	</g>
	<g>
		
			<rect x="257.692" y="419.566" transform="matrix(0.7071 0.7071 -0.7071 0.7071 374.8116 -63.5811)" fill="#262626" width="12.926" height="2.162"/>
		<g>
			
				<rect x="265.477" y="420.13" transform="matrix(0.7071 0.7071 -0.7071 0.7071 376.4774 -66.4756)" fill="#262626" width="6.01" height="2.162"/>
			
				<rect x="262.541" y="413.302" transform="matrix(0.7071 -0.7071 0.7071 0.7071 -217.187 308.3531)" fill="#262626" width="2.162" height="6.085"/>
		</g>
		<g>
			
				<rect x="261.714" y="423.893" transform="matrix(0.7071 0.7071 -0.7071 0.7071 378.0366 -62.7125)" fill="#262626" width="6.01" height="2.162"/>
			
				<rect x="258.777" y="417.065" transform="matrix(0.7071 -0.7071 0.7071 0.7071 -220.9502 306.794)" fill="#262626" width="2.162" height="6.085"/>
		</g>
	</g>
	<path fill="#D33131" d="M240.502,520.921c-9.248,0-16.878,6.843-18.156,15.737c0.711,1.369,3.644,6.153,9.954,6.153
		c8.298,0,7.96-7.004,16.146-7.004c7.073,0,9.684,5.53,10.132,6.623c0.178-1.024,0.288-2.071,0.288-3.145
		C258.867,529.144,250.645,520.921,240.502,520.921z"/>
	<g>
		
			<rect x="205.384" y="515.404" transform="matrix(-0.7071 0.7071 -0.7071 -0.7071 728.6526 731.481)" fill="#262626" width="14.896" height="2.491"/>
		
			<rect x="207.552" y="517.572" transform="matrix(-0.7071 0.7071 -0.7071 -0.7071 733.8865 733.6495)" fill="#262626" width="14.896" height="2.491"/>
		
			<rect x="209.72" y="519.741" transform="matrix(-0.7071 0.7071 -0.7071 -0.7071 739.1223 735.8184)" fill="#262626" width="14.896" height="2.491"/>
	</g>
	<g>
		
			<rect x="259.257" y="517.708" transform="matrix(0.7071 0.7071 -0.7071 0.7071 445.0713 -36.5911)" fill="#262626" width="14.896" height="2.491"/>
		<g>
			
				<rect x="268.229" y="518.357" transform="matrix(0.7071 0.7071 -0.7071 0.7071 446.9908 -39.9266)" fill="#262626" width="6.925" height="2.491"/>
			
				<rect x="264.845" y="510.489" transform="matrix(0.7071 -0.7071 0.7071 0.7071 -285.5132 338.6999)" fill="#262626" width="2.491" height="7.012"/>
		</g>
		<g>
			
				<rect x="263.892" y="522.694" transform="matrix(0.7071 0.7071 -0.7071 0.7071 448.7875 -35.5902)" fill="#262626" width="6.925" height="2.491"/>
			
				<rect x="260.508" y="514.825" transform="matrix(0.7071 -0.7071 0.7071 0.7071 -289.8497 336.9033)" fill="#262626" width="2.491" height="7.012"/>
		</g>
	</g>
	<polygon fill="#1CB0F6" points="599.958,440.042 599.958,480.042 600.508,480.042 641.714,440.262 600.008,400 599.958,400 	"/>
	<polygon fill="#1CB0F6" points="640.75,500 640.75,500 600.114,500 640.031,541.804 679.573,500 	"/>
	<polygon fill="#D33131" points="600.114,500 599.958,500 599.958,556.04 640.031,541.804 	"/>
	<polygon fill="#FFFFFF" points="679.573,500 640.031,541.804 679.958,555.967 679.958,500 	"/>
	<polygon fill="#D33131" points="641.485,440.042 641.714,440.262 600.508,480.042 680,480.042 680,440.042 	"/>
	<polygon fill="#FFFFFF" points="600.008,400 641.485,440.042 680,440.042 680,400 	"/>
	<polygon fill="#D33131" points="766.368,550.95 779.958,555.967 779.958,500 766.368,500 	"/>
	<polygon fill="#FFFFFF" points="752.558,545.852 766.35,550.943 766.35,500 752.558,500 	"/>
	<polygon fill="#FFFFFF" points="713.734,551.146 727.526,546.246 727.526,500 713.734,500 	"/>
	<polygon fill="#1CB0F6" points="752.623,500 740.75,500 740.75,500 727.419,500 727.419,546.284 740.75,541.549 740.826,541.522 
		752.623,545.876 	"/>
	<polygon fill="#D33131" points="713.758,500 699.958,500 699.958,556.04 713.758,551.137 	"/>
	<path fill="#7AC70C" d="M931.417,415.919h-0.004h-7.847l-2.424-7.463c-0.089-0.278-0.349-0.467-0.642-0.467
		c-0.293,0-0.553,0.188-0.643,0.467l-2.424,7.463h-7.847c-0.293,0-0.553,0.188-0.643,0.467c-0.09,0.279,0.008,0.584,0.245,0.756
		l6.348,4.612l-2.424,7.463c-0.09,0.279,0.008,0.584,0.245,0.756c0.119,0.086,0.258,0.129,0.397,0.129s0.279-0.043,0.397-0.129
		l6.348-4.612l6.348,4.612c0.119,0.086,0.258,0.129,0.397,0.129s0.279-0.043,0.397-0.129c0.237-0.172,0.336-0.478,0.245-0.756
		l-2.424-7.463l6.329-4.598c0.181-0.122,0.299-0.327,0.299-0.561C932.091,416.221,931.791,415.919,931.417,415.919z"/>
	<path fill="#7AC70C" d="M931.417,517.919h-0.004h-7.847l-2.424-7.463c-0.089-0.278-0.349-0.467-0.642-0.467
		c-0.293,0-0.553,0.188-0.643,0.467l-2.424,7.463h-7.847c-0.293,0-0.553,0.188-0.643,0.467c-0.09,0.279,0.008,0.584,0.245,0.756
		l6.348,4.612l-2.424,7.463c-0.09,0.279,0.008,0.584,0.245,0.756c0.119,0.086,0.258,0.129,0.397,0.129s0.279-0.043,0.397-0.129
		l6.348-4.612l6.348,4.612c0.119,0.086,0.258,0.129,0.397,0.129s0.279-0.043,0.397-0.129c0.237-0.172,0.336-0.478,0.245-0.756
		l-2.424-7.463l6.329-4.598c0.181-0.122,0.299-0.327,0.299-0.56C932.091,518.221,931.791,517.919,931.417,517.919z"/>
	<circle fill="#FFFFFF" cx="41.111" cy="642.128" r="22.789"/>
	<path fill="#231F20" d="M41.389,607.667c0,0,3.474,29.737,7.92,36.128c-1.806,3.057-8.198,11.95-8.198,11.95l-8.059-12.228
		C33.051,643.517,37.915,634.763,41.389,607.667z"/>
	<polygon fill="#D33131" points="0.145,700.063 80,700.063 80,755.928 40,741.625 0.145,756.001 	"/>
	<path fill="#231F20" d="M50.838,646.435l-7.643,10.839c0,0,5.697,4.447,12.923,4.447s8.893-3.752,8.893-3.752
		S55.84,657.413,50.838,646.435z"/>
	<path fill="#231F20" d="M31.523,647.13l7.92,10.283c0,0-12.089,0.278-19.176,7.92C19.573,658.386,22.63,651.716,31.523,647.13z"/>
	<path fill="#FFFFFF" d="M40.111,713.339c-12.586,0-22.789,10.203-22.789,22.789c0,4.558,1.343,8.8,3.648,12.361L40,741.625
		l19.241,6.88c2.311-3.565,3.659-7.813,3.659-12.377C62.9,723.542,52.697,713.339,40.111,713.339z"/>
	<path fill="#231F20" d="M32.051,737.517l3.714,5.635L40,741.625l4.663,1.667c1.48-2.138,2.927-4.28,3.646-5.497
		c-4.447-6.392-7.921-36.129-7.921-36.129C36.915,728.763,32.051,737.517,32.051,737.517z"/>
	<path fill="#231F20" d="M54.931,746.964c-1.658-1.627-3.271-3.795-4.593-6.695l-2.845,4.035L54.931,746.964z"/>
	<path fill="#231F20" d="M33.284,744.048l-2.761-3.584c-4.253,2.193-7.159,4.866-8.97,7.815L33.284,744.048z"/>
	<path fill="#FFFFFF" d="M263.488,646.472l-1.4-5.847c1.626-2.322,1.167-5.536-1.091-7.304c-0.586-0.459-1.238-0.776-1.914-0.958
		l-1.27-3.071l-0.699-5.832l-4.381,4.329c-4.004,0.014-9.213,0.364-13.361,6.354c-3.987,5.758-13.029,18.718-15.298,21.968
		l-0.047,0.046l0.015,0c-0.318,0.455-0.494,0.708-0.494,0.708l22.823-0.017l2.148-5.431l2.078-5.078l3.776,3.397
		c-0.037,1.058,0.102,2.394,0.466,3.16c0.579,2.604,2.968,4.942,4.745,4.52l-0.087-1.59c1.731,0.133,3.493-0.574,4.643-2.044
		C265.894,651.54,265.583,648.341,263.488,646.472z M257.366,637.704c-0.388-0.925,0.165-2.039,1.236-2.488l1.406,3.348
		C258.937,639.014,257.754,638.629,257.366,637.704z"/>
	<path opacity="0.53" fill="#FFFFFF" d="M252.5,629.333v-7.667c0,0-10.5-0.667-16.667,6.667
		C229.667,635.667,213.167,657,213.167,657h30.5c0,0,5.833-15.833,5.667-16.333C249.167,640.167,252.5,629.333,252.5,629.333z"/>
	<path opacity="0.53" fill="#FFFFFF" d="M259.088,728.625c1.626-2.322,1.167-5.536-1.091-7.304
		c-0.586-0.459-1.238-0.776-1.914-0.958l-1.27-3.071l-0.699-5.832l-4.381,4.329c-4.004,0.014-9.213,0.364-13.361,6.354
		c-3.987,5.758-13.029,18.718-15.298,21.968l-0.047,0.046l0.015,0c-0.318,0.455-0.494,0.708-0.494,0.708l10.887-0.008l1.567-0.557
		l7.749-2.753l0.076-0.027l3.367,1.243l1.324-3.346l2.078-5.078l3.776,3.397c-0.037,1.058,0.102,2.394,0.466,3.16
		c0.579,2.604,2.968,4.942,4.745,4.52l-0.087-1.59c1.731,0.133,3.493-0.574,4.643-2.044c1.755-2.242,1.443-5.442-0.652-7.311
		L259.088,728.625z M254.366,725.704c-0.388-0.925,0.165-2.039,1.236-2.488l1.406,3.348
		C255.937,727.014,254.754,726.629,254.366,725.704z"/>
	<g>
		<path fill="#FF9100" d="M240.75,700L240.75,700h-7.75h-14.667h-18.375v18.917h0.083v14.667h-0.083v22.456l18.375-6.528v0
			l13.1-4.654l-10.887,0.008c0,0,0.177-0.253,0.494-0.708l-0.015,0l0.047-0.046c2.268-3.25,11.31-16.21,15.298-21.968
			c4.148-5.99,9.357-6.34,13.361-6.354l4.381-4.329l0.699,5.832l1.27,3.071c0.676,0.181,1.328,0.499,1.914,0.958
			c2.259,1.767,2.717,4.982,1.091,7.304l1.4,5.847c2.095,1.869,2.407,5.068,0.652,7.311c-1.15,1.47-2.912,2.177-4.643,2.044
			l0.087,1.59c-1.778,0.422-4.167-1.917-4.745-4.52c-0.365-0.765-0.503-2.102-0.466-3.16l-3.776-3.397l-2.078,5.078l-1.324,3.346
			l35.764,13.202v-22.383v-14.667V700H240.75z"/>
		<path fill="#FF9100" d="M257.008,726.564l-1.406-3.348c-1.071,0.45-1.624,1.564-1.236,2.488
			C254.754,726.629,255.937,727.014,257.008,726.564z"/>
	</g>
	<path opacity="0.5" fill="#FFFFFF" d="M242.357,720.881c1.876-2.734,4.571-3.68,7.1-3.409c0.027-0.089,0.043-0.139,0.043-0.139
		v-7.667c0,0-10.5-0.667-16.667,6.667C226.667,723.667,210.167,745,210.167,745h15.16
		C228.443,734.912,236.625,729.237,242.357,720.881z"/>
	<path fill="none" stroke="#FFFFFF" stroke-width="2" stroke-linecap="round" stroke-linejoin="round" stroke-miterlimit="10" d="
		M341.25,614c0,0-14.25,4-14.25,12.5c0,11.667,35.25,2.875,35.25,16.417"/>
	<path fill="#C5DD9E" d="M362.325,642.825c-0.448-0.574-7.414-0.608-12.354,1.83c1.138-2.93,1.918-6.053,1.918-9.001
		c0-9.828-9.401-21.621-10.462-21.621c-1.365,0-10.462,11.794-10.462,21.621c0,2.832,0.695,5.826,1.731,8.656
		c-4.86-2.07-11.136-2.014-11.56-1.469c-0.401,0.514,1.758,9.52,6.515,13.232c4.393,3.427,12.364,3.919,14.105,3.281
		c1.836,0.611,9.7,0.099,14.052-3.297C360.567,652.345,362.726,643.339,362.325,642.825z"/>
	<path fill="none" stroke="#FFFFFF" stroke-width="1.9456" stroke-miterlimit="10" d="M362.325,642.825
		c-0.448-0.574-7.414-0.608-12.354,1.83c1.138-2.93,1.918-6.053,1.918-9.001c0-9.828-9.401-21.621-10.462-21.621
		c-1.365,0-10.462,11.794-10.462,21.621c0,2.832,0.695,5.826,1.731,8.656c-4.86-2.07-11.136-2.014-11.56-1.469
		c-0.401,0.514,1.758,9.52,6.515,13.232c4.393,3.427,12.364,3.919,14.105,3.281c1.836,0.611,9.7,0.099,14.052-3.297
		C360.567,652.345,362.726,643.339,362.325,642.825z"/>
	<path fill="none" stroke="#FFFFFF" stroke-width="2" stroke-miterlimit="10" d="M341.167,652.667"/>
	<circle fill="#7AC70C" cx="341.375" cy="658.344" r="5"/>
	
		<path fill="none" stroke="#FFFFFF" stroke-width="2.0472" stroke-linecap="round" stroke-linejoin="round" stroke-miterlimit="10" d="
		M341.333,652.292v12.646c0,0-0.208,4.062,5.229,4.062"/>
	<g>
		<path fill="#FFFFFF" d="M340.599,651.713c-0.067,0-0.132-0.027-0.179-0.076c-0.047-0.048-0.073-0.113-0.071-0.181l0.745-26.237
			c0.004-0.136,0.115-0.243,0.25-0.243s0.246,0.107,0.25,0.243l0.745,26.237c0.002,0.067-0.023,0.133-0.071,0.181
			c-0.047,0.049-0.112,0.076-0.179,0.076H340.599z"/>
		<path fill="#FFFFFF" d="M341.344,625.226l0.745,26.237h-1.49L341.344,625.226 M341.344,624.726c-0.271,0-0.492,0.215-0.5,0.486
			l-0.745,26.237c-0.004,0.135,0.047,0.266,0.141,0.363c0.094,0.097,0.223,0.151,0.359,0.151h1.49c0.135,0,0.264-0.055,0.359-0.151
			c0.094-0.097,0.145-0.228,0.141-0.363l-0.745-26.237C341.836,624.941,341.614,624.726,341.344,624.726L341.344,624.726z"/>
	</g>
	<circle fill="none" stroke="#FFFFFF" stroke-width="1.9456" stroke-miterlimit="10" cx="341.333" cy="658.25" r="5.958"/>
	
		<path fill="none" stroke="#FFFFFF" stroke-width="2.0472" stroke-linecap="round" stroke-linejoin="round" stroke-miterlimit="10" d="
		M362.312,642.979c0,6.142-1.127,21.771-20.312,21.771c-20.906,0-20.875-15.979-20.875-21.609"/>
	
		<path fill="#7AC70C" stroke="#7AC70C" stroke-width="0.8092" stroke-linecap="round" stroke-linejoin="round" stroke-miterlimit="10" d="
		M340.939,631.308"/>
	
		<path fill="#7AC70C" stroke="#7AC70C" stroke-width="0.8092" stroke-linecap="round" stroke-linejoin="round" stroke-miterlimit="10" d="
		M343.938,629.5"/>
	<path fill="none" stroke="#FFFFFF" stroke-width="2" stroke-miterlimit="10" d="M341.167,744.667"/>
	<g>
		<path fill="#C5DD9E" d="M349.971,736.655c1.138-2.93,1.918-6.053,1.918-9.001c0-9.828-9.401-21.621-10.462-21.621
			c-1.365,0-10.462,11.794-10.462,21.621c0,2.832,0.695,5.826,1.731,8.656c-4.86-2.07-11.136-2.014-11.56-1.469
			c-0.358,0.459,1.332,7.683,5.086,11.869l6.779-2.408l7.749-2.753l0.076-0.027l15.79,5.829c4.193-4.034,6.086-12.042,5.708-12.526
			C361.877,734.251,354.91,734.217,349.971,736.655z"/>
		<polygon fill="#C5DD9E" points="326.222,746.71 326.222,746.71 330.86,745.062 		"/>
	</g>
	<g>
		<path fill="#FFFFFF" d="M341.844,717.211c-0.008-0.271-0.229-0.486-0.5-0.486s-0.492,0.215-0.5,0.486l-0.697,24.552l0.603-0.214
			l0.076-0.027l1.725,0.637L341.844,717.211z"/>
		
			<rect x="325.185" y="746.707" transform="matrix(-0.9423 0.3348 -0.3348 -0.9423 883.5994 1341.1281)" fill="#FFFFFF" width="2.091" height="0"/>
		
			<rect x="322.489" y="747.669" transform="matrix(0.9423 -0.3347 0.3347 0.9423 -231.6107 151.4285)" fill="#FFFFFF" width="2.066" height="0"/>
		<path fill="#FFFFFF" d="M363.227,734.528c-0.228-5.019-4.771-7.194-10.437-8.366c-0.422-5.005-2.836-10.032-4.898-13.501
			c-0.043-0.071-4.115-6.837-6.15-7.531c-0.223-0.126-0.494-0.167-0.762-0.093c-0.612,0.172-14.98,4.311-14.98,13.463
			c0,2.835,1.701,4.608,4.318,5.793c-0.206,1.146-0.326,2.275-0.326,3.362c0,2.174,0.384,4.54,1.143,7.056
			c-2.746-0.845-5.656-1.164-7.705-1.164c-2.518,0-2.858,0.436-3.062,0.696c-0.114,0.146-0.177,0.361-0.206,0.618
			c-0.031,0.099-0.061,0.198-0.061,0.306c0,2.854,0.007,8.073,2.447,12.848l1.947-0.692c-0.569-1.07-1.004-2.175-1.331-3.278
			c0.583,1.043,1.282,2.073,2.079,3.012l1.97-0.7c-2.997-3.11-4.678-8.389-5.065-10.486c-0.001-0.108-0.001-0.214-0.001-0.318
			c0.287-0.034,0.703-0.061,1.282-0.061c2.35,0,5.918,0.45,8.884,1.713l2.068,0.882l-0.773-2.111
			c-1.11-3.027-1.672-5.827-1.672-8.321c0-8.614,7.437-18.943,9.445-20.517c1.851,1.647,9.533,11.932,9.533,20.517
			c0,2.573-0.623,5.483-1.852,8.649l-0.905,2.331l2.243-1.107c3.068-1.515,7.101-2.052,9.622-2.052c0.562,0,0.968,0.026,1.255,0.058
			c-0.002,0.181-0.006,0.362-0.01,0.54c-0.491,2.393-2.378,8.018-5.683,10.897l2.026,0.748c0.759-0.787,1.435-1.667,2.021-2.584
			c-0.401,1.035-0.873,1.963-1.393,2.816l1.947,0.719c2.07-3.578,3.15-8.162,3.15-13.689c0-0.151-0.036-0.291-0.095-0.42
			C363.238,734.547,363.231,734.54,363.227,734.528z M330.758,722.311c-1.71-0.876-2.758-2.077-2.758-3.811
			c0-4.985,5.696-8.359,9.695-10.113C335.138,711.708,332.137,717.059,330.758,722.311z M360.023,733.529
			c-2.297,0-5.495,0.382-8.408,1.393c0.761-2.393,1.159-4.637,1.221-6.718c4.225,0.914,7.492,2.415,8.245,5.362
			C360.775,733.544,360.438,733.529,360.023,733.529z"/>
	</g>
	<g>
		<path fill="#7AC70C" d="M358.432,748.021l-0.193-0.071c0.52-0.852,0.992-1.781,1.393-2.816c-0.586,0.917-1.262,1.797-2.021,2.584
			l-2.026-0.748"/>
		<path fill="#7AC70C" d="M328,718.5c0,1.734,1.048,2.935,2.758,3.811c1.379-5.252,4.381-10.604,6.937-13.925
			C333.696,710.141,328,713.515,328,718.5z"/>
		<path fill="#7AC70C" d="M318.334,749.512l6.911-2.455c-0.797-0.94-1.496-1.969-2.079-3.012c0.326,1.103,0.761,2.208,1.331,3.278
			l-1.947,0.692c-2.44-4.775-2.447-9.995-2.447-12.848c0-0.108,0.03-0.208,0.061-0.306c0.029-0.257,0.092-0.471,0.206-0.618
			c0.204-0.261,0.544-0.696,3.062-0.696c2.048,0,4.958,0.319,7.705,1.164c-0.759-2.516-1.143-4.882-1.143-7.056
			c0-1.087,0.12-2.216,0.326-3.362c-2.617-1.185-4.318-2.958-4.318-5.793c0-9.152,14.368-13.291,14.98-13.463
			c0.267-0.074,0.539-0.033,0.762,0.093c2.035,0.694,6.107,7.46,6.15,7.531c2.062,3.469,4.477,8.496,4.898,13.501
			c5.666,1.172,10.209,3.347,10.437,8.366c0.004,0.012,0.011,0.02,0.014,0.032c0.058,0.129,0.095,0.269,0.095,0.42
			c0,5.527-1.079,10.111-3.15,13.689l19.772,7.299v-22.383v-14.667V700H340.75h0h-7.749h-14.667h-18.375v56.039l22.591-8.025h0
			l1.947-0.692l0,0"/>
		<path fill="#7AC70C" d="M361.081,733.565c-0.752-2.947-4.02-4.448-8.245-5.362c-0.062,2.081-0.46,4.326-1.221,6.718
			c2.913-1.011,6.11-1.393,8.408-1.393C360.438,733.529,360.775,733.544,361.081,733.565z"/>
	</g>
	
		<path fill="#7AC70C" stroke="#7AC70C" stroke-width="0.8092" stroke-linecap="round" stroke-linejoin="round" stroke-miterlimit="10" d="
		M340.939,723.308"/>
	
		<path fill="#7AC70C" stroke="#7AC70C" stroke-width="0.8092" stroke-linecap="round" stroke-linejoin="round" stroke-miterlimit="10" d="
		M343.938,721.5"/>
	<path fill="#FFFFFF" d="M448.603,622.956l-3.874,4.271l2.866,2.065l-4.358,10.548l1.835-8.943l-3.899-2.981l3.986-7.772
		c-1.607-0.966-3.311-1.523-5.075-1.523c-9.719,0-17.598,16.83-17.598,26.55c0,9.719,7.879,16.91,17.598,16.91
		c9.72,0,17.6-7.191,17.6-16.91C457.685,638.542,454.018,628.605,448.603,622.956z"/>
	<path fill="#FFFFFF" d="M444.729,722.227l2.866,2.065l-4.358,10.548l1.835-8.943l-3.899-2.981l3.986-7.772
		c-1.607-0.966-3.311-1.523-5.075-1.523c-9.719,0-17.598,16.83-17.598,26.55c0,2.649,0.602,5.101,1.651,7.28l16.612-5.901
		l0.076-0.027l15.34,5.663c0.969-2.112,1.518-4.473,1.518-7.014c0-6.628-3.667-16.565-9.082-22.214L444.729,722.227z"/>
	<path fill="#1CB0F6" d="M440.75,700L440.75,700h-40.792v56.039l24.18-8.589c-1.049-2.179-1.651-4.63-1.651-7.28
		c0-9.72,7.879-26.55,17.598-26.55c1.764,0,3.468,0.558,5.075,1.523l-3.986,7.772l3.899,2.981l-1.835,8.943l4.358-10.548
		l-2.866-2.065l3.874-4.271c5.415,5.649,9.082,15.586,9.082,22.214c0,2.541-0.549,4.902-1.518,7.014l23.792,8.783V700H440.75z"/>
	<polygon fill="#1CB0F6" points="500,600 540,640 580,600 	"/>
	<polygon fill="#FFC200" points="580,680 580,640.042 580,600 580,600 540,640 	"/>
	<polygon fill="#FFFFFF" points="499.958,640.042 499.958,680.042 540,640 500,600 499.958,600 	"/>
	<polygon fill="#D33131" points="580,680 540,640 499.958,680.042 499.958,680.042 580,680.042 	"/>
	<polygon fill="#1CB0F6" points="540,723 563,700 540.75,700 540.75,700 517,700 	"/>
	<polygon fill="#FFC200" points="568.876,751.876 579.958,755.967 579.958,700 563,700 540,723 	"/>
	<polygon fill="#FFFFFF" points="540,723 517,700 499.958,700 499.958,723.042 499.958,756.04 510.818,752.182 	"/>
	<polygon fill="#D33131" points="540,723 510.818,752.182 540.75,741.549 540.826,741.522 568.876,751.876 	"/>
</g>
<g id="Layer_2">
</g>
</svg>
